<?xml version="1.0" encoding="UTF-8"?>
<svg version="1.1" xmlns="http://www.w3.org/2000/svg" width="222" height="131">
<path d="M0 0 C1.67542976 0.28604898 3.34385343 0.61781233 5 1 C5.125 3.875 5.125 3.875 5 7 C4.34 7.66 3.68 8.32 3 9 C2.75746187 11.21072977 2.75746187 11.21072977 2.875 13.625 C2.89304688 14.44226562 2.91109375 15.25953125 2.9296875 16.1015625 C2.95289063 16.72804688 2.97609375 17.35453125 3 18 C4.32 18 5.64 18 7 18 C7 17.34 7 16.68 7 16 C8.98 16.495 8.98 16.495 11 17 C12.38011717 22.43421134 13.35111062 27.38223003 13 33 C12 34 12 34 8.4375 34.0625 C7.303125 34.041875 6.16875 34.02125 5 34 C5.25518471 36.27264504 5.52969061 38.54312705 5.8125 40.8125 C5.96332031 42.07707031 6.11414063 43.34164062 6.26953125 44.64453125 C7.01030964 48.04735819 7.46353278 48.84951692 10 51 C10.1875 53.6875 10.1875 53.6875 10 56 C9.34 56 8.68 56 8 56 C8.495 58.475 8.495 58.475 9 61 C9.94875 60.95875 10.8975 60.9175 11.875 60.875 C15 61 15 61 17 63 C17.30599063 65.56916657 17.51087087 68.04758384 17.625 70.625 C17.66367188 71.33140625 17.70234375 72.0378125 17.7421875 72.765625 C17.83647724 74.50998524 17.91932891 76.25495691 18 78 C13.64409432 79.62849969 9.76065388 80.34118446 5.125 80.625 C3.39636719 80.73714844 3.39636719 80.73714844 1.6328125 80.8515625 C0.76398438 80.90054688 -0.10484375 80.94953125 -1 81 C-2.63890777 76.70270639 -3.22701646 73.21574068 -3.125 68.625 C-3.10695312 67.56539063 -3.08890625 66.50578125 -3.0703125 65.4140625 C-3.04710937 64.61742188 -3.02390625 63.82078125 -3 63 C-0.69 63 1.62 63 4 63 C3.34 60.36 2.68 57.72 2 55 C-4.6 55 -11.2 55 -18 55 C-18 66.22 -18 77.44 -18 89 C-19.65 88.67 -21.3 88.34 -23 88 C-23 77.44 -23 66.88 -23 56 C-30.425 56.99 -30.425 56.99 -38 58 C-38 60.97 -38 63.94 -38 67 C-36.02 66.01 -36.02 66.01 -34 65 C-33.01 65 -32.02 65 -31 65 C-31 70.94 -31 76.88 -31 83 C-37.27 83 -43.54 83 -50 83 C-51.60670684 79.78658631 -50.82510855 76.37041032 -50.5625 72.875 C-50.51029297 72.12089844 -50.45808594 71.36679688 -50.40429688 70.58984375 C-50.27454996 68.7262063 -50.13792512 66.86305004 -50 65 C-47.61435923 65.57584432 -45.33317216 66.22227595 -43 67 C-42.67 65.02 -42.34 63.04 -42 61 C-43.32 61 -44.64 61 -46 61 C-46.125 58.125 -46.125 58.125 -46 55 C-45.34 54.34 -44.68 53.68 -44 53 C-43.97792512 50.32186601 -43.97792512 50.32186601 -44.375 47.375 C-44.58125 45.60125 -44.7875 43.8275 -45 42 C-49.62 41.01 -54.24 40.02 -59 39 C-59.2586761 32.01574534 -59.29768187 27.1831535 -56 21 C-53.69 21.33 -51.38 21.66 -49 22 C-48.95875 20.72125 -48.9175 19.4425 -48.875 18.125 C-48.84019531 17.04605469 -48.84019531 17.04605469 -48.8046875 15.9453125 C-48.81668311 13.76136355 -48.81668311 13.76136355 -51 12 C-51.1875 9.4375 -51.1875 9.4375 -51 7 C-50 6 -50 6 -47 5.875 C-44 6 -44 6 -43 7 C-35.01031008 7.56949572 -25.61820929 7.5394031 -18 5 C-15.99996567 5 -13.99976068 5.00207197 -12 5.03515625 C-9.5893428 4.99278142 -7.35552262 4.48496054 -5 4 C-4.34 4.33 -3.68 4.66 -3 5 C-2.690625 4.360625 -2.38125 3.72125 -2.0625 3.0625 C-1 1 -1 1 0 0 Z M-27.4375 8.9375 C-28.35982422 9.03740234 -29.28214844 9.13730469 -30.23242188 9.24023438 C-32.48924805 9.48579577 -34.7448907 9.73921808 -37 10 C-37.33 10.99 -37.66 11.98 -38 13 C-36.86111328 13.92232422 -36.86111328 13.92232422 -35.69921875 14.86328125 C-34.70535156 15.67152344 -33.71148437 16.47976562 -32.6875 17.3125 C-31.70136719 18.11300781 -30.71523437 18.91351563 -29.69921875 19.73828125 C-27 22 -27 22 -25.51953125 23.85546875 C-23.93366942 25.28270857 -23.93366942 25.28270857 -21.12109375 25.0546875 C-17.12701735 23.7049996 -15.38762631 21.46224012 -13.0625 18.125 C-12.65193359 17.58230469 -12.24136719 17.03960937 -11.81835938 16.48046875 C-10.49886112 14.71891862 -10.49886112 14.71891862 -9 12 C-9.33 11.01 -9.66 10.02 -10 9 C-16.00568344 7.82193041 -21.38345845 8.23577164 -27.4375 8.9375 Z M-5 16 C-5 16.99 -5 17.98 -5 19 C-3.68 19 -2.36 19 -1 19 C-1 17.35 -1 15.7 -1 14 C-2.46225016 13.90754997 -2.46225016 13.90754997 -5 16 Z M-43 18 C-43.33 19.98 -43.66 21.96 -44 24 C-41.525 24.495 -41.525 24.495 -39 25 C-39.30887453 27.43800966 -39.62194662 29.87535367 -39.9375 32.3125 C-40.02451172 33.00279297 -40.11152344 33.69308594 -40.20117188 34.40429688 C-40.59210135 37.40142288 -41.0415004 40.12450119 -42 43 C-41.72230092 45.3406065 -41.39460023 47.67624308 -41 50 C-37.53951367 46.60724561 -34.26050261 43.13328095 -31.125 39.4375 C-30.32320312 38.50808594 -29.52140625 37.57867187 -28.6953125 36.62109375 C-26.77671142 34.21317287 -26.77671142 34.21317287 -27.10546875 31.8125 C-29.5179366 26.92435554 -34.75382786 23.30257833 -39 20 C-39.66 20 -40.32 20 -41 20 C-41 19.34 -41 18.68 -41 18 C-41.66 18 -42.32 18 -43 18 Z M-9 22 C-9 22.66 -9 23.32 -9 24 C-9.928125 24.3403125 -9.928125 24.3403125 -10.875 24.6875 C-13.61973575 26.38277796 -13.93463654 28.02945954 -15 31 C-13.42489875 32.48792961 -11.83959136 33.9650606 -10.25 35.4375 C-9.36828125 36.26121094 -8.4865625 37.08492187 -7.578125 37.93359375 C-5.21124968 39.83068018 -3.9490809 40.62102932 -1 41 C-1 41.66 -1 42.32 -1 43 C0.32 42.67 1.64 42.34 3 42 C3 39.69 3 37.38 3 35 C-1.65052872 34.73067479 -1.65052872 34.73067479 -6 36 C-6.66 31.38 -7.32 26.76 -8 22 C-8.33 22 -8.66 22 -9 22 Z M-53 32 C-52 34 -52 34 -52 34 Z M-24 40 C-25.56238171 41.7130083 -27.0750305 43.47155447 -28.5625 45.25 C-29.38878906 46.22453125 -30.21507812 47.1990625 -31.06640625 48.203125 C-33.3791148 50.98167776 -33.3791148 50.98167776 -33 55 C-31.52093108 55.02689216 -30.04172517 55.04634621 -28.5625 55.0625 C-27.32693359 55.07990234 -27.32693359 55.07990234 -26.06640625 55.09765625 C-24.00836062 55.23267348 -24.00836062 55.23267348 -23 54 C-22.92728259 51.64686445 -22.91629132 49.29166332 -22.9375 46.9375 C-22.94652344 45.64714844 -22.95554687 44.35679688 -22.96484375 43.02734375 C-22.97644531 42.02832031 -22.98804688 41.02929688 -23 40 C-23.33 40 -23.66 40 -24 40 Z M-18 40 C-18 44.62 -18 49.24 -18 54 C-15.875625 53.71125 -13.75125 53.4225 -11.5625 53.125 C-10.36753906 52.96257813 -9.17257813 52.80015625 -7.94140625 52.6328125 C-6.97074219 52.42398438 -6.00007813 52.21515625 -5 52 C-4.67 51.34 -4.34 50.68 -4 50 C-7.49182898 46.40547017 -11.00700747 43.03814649 -15 40 C-15.99 40 -16.98 40 -18 40 Z M-47 80 C-43 81 -43 81 -43 81 Z " fill="#997D49" transform="translate(98,0)"/>
<path d="M0 0 C1.65 0 3.3 0 5 0 C7.16030759 4.37275498 7.30659875 8.44115504 7.30078125 13.22265625 C7.30506638 14.00515244 7.3093515 14.78764862 7.31376648 15.59385681 C7.31949061 17.24200475 7.32002422 18.89017794 7.31567383 20.53833008 C7.31250579 23.0578912 7.3360234 25.57628628 7.36132812 28.09570312 C7.36360054 29.70051936 7.36430488 31.30533874 7.36328125 32.91015625 C7.372491 33.66128189 7.38170074 34.41240753 7.39118958 35.18629456 C7.35390325 39.40236201 7.01834419 41.94673859 4 45 C2.02 44.67 0.04 44.34 -2 44 C-2.33 42.68 -2.66 41.36 -3 40 C-3.66 40 -4.32 40 -5 40 C-7.31 35.38 -9.62 30.76 -12 26 C-12.24912148 31.13003792 -12.24912148 31.13003792 -12.47802734 36.26098633 C-12.68367265 39.96958079 -12.90155637 41.85233456 -15 45 C-16.875 44.75 -16.875 44.75 -19 44 C-21.25630513 40.65452921 -21.25755478 37.69265966 -21.265625 33.73046875 C-21.26820312 32.51166016 -21.27078125 31.29285156 -21.2734375 30.03710938 C-21.26570313 28.76673828 -21.25796875 27.49636719 -21.25 26.1875 C-21.25773437 24.92873047 -21.26546875 23.66996094 -21.2734375 22.37304688 C-21.24762629 10.13208003 -21.24762629 10.13208003 -19 5 C-18.01 4.67 -17.02 4.34 -16 4 C-10.90681728 8.29709022 -8.76217344 13.25066486 -6.1875 19.3125 C-5.78080078 20.24384766 -5.37410156 21.17519531 -4.95507812 22.13476562 C-3.95945741 24.41883669 -2.97487639 26.7070168 -2 29 C-2.01047363 28.29915283 -2.02094727 27.59830566 -2.03173828 26.8762207 C-2.07341668 23.68835055 -2.09936385 20.50053785 -2.125 17.3125 C-2.14175781 16.20970703 -2.15851562 15.10691406 -2.17578125 13.97070312 C-2.18222656 12.90400391 -2.18867188 11.83730469 -2.1953125 10.73828125 C-2.20578613 9.75899658 -2.21625977 8.77971191 -2.22705078 7.77075195 C-1.98597685 4.82887228 -1.23055542 2.66762274 0 0 Z " fill="#8D823D" transform="translate(28,70)"/>
<path d="M0 0 C1.2684375 0.12375 1.2684375 0.12375 2.5625 0.25 C4.74195746 3.51918619 4.7957905 4.37549273 4.72265625 8.14453125 C4.71169922 9.10037109 4.70074219 10.05621094 4.68945312 11.04101562 C4.66818359 12.03810547 4.64691406 13.03519531 4.625 14.0625 C4.41384647 22.70451268 4.41384647 22.70451268 5.5625 31.25 C5.93761719 30.64671875 6.31273437 30.0434375 6.69921875 29.421875 C11.24050627 22.32968794 15.47987368 17.94420877 23.5625 15.25 C27.4687829 17.8541886 28.02175409 20.7740158 29.3125 25.0625 C29.66248047 26.13081055 29.66248047 26.13081055 30.01953125 27.22070312 C31.2639216 31.24820603 31.89957634 34.10017162 30.5625 38.25 C28.0875 38.745 28.0875 38.745 25.5625 39.25 C24.2425 37.27 22.9225 35.29 21.5625 33.25 C21.10359375 33.67152344 20.6446875 34.09304687 20.171875 34.52734375 C19.55828125 35.07519531 18.9446875 35.62304688 18.3125 36.1875 C17.70921875 36.73277344 17.1059375 37.27804688 16.484375 37.83984375 C14.43788959 39.34143162 13.08500688 40.00188457 10.5625 40.25 C8.3125 38.3125 8.3125 38.3125 6.5625 36.25 C6.170625 36.765625 5.77875 37.28125 5.375 37.8125 C4.776875 38.286875 4.17875 38.76125 3.5625 39.25 C0.875 38.9375 0.875 38.9375 -1.4375 38.25 C-3.21990748 33.65335787 -3.68399439 29.83595463 -3.66796875 24.91796875 C-3.66751053 24.24075272 -3.66705231 23.56353668 -3.6665802 22.86579895 C-3.66357815 21.44640329 -3.65575385 20.02701031 -3.64331055 18.60766602 C-3.624907 16.42647779 -3.62280215 14.24571136 -3.62304688 12.06445312 C-3.58148999 0.36733231 -3.58148999 0.36733231 0 0 Z " fill="#8C7E2E" transform="translate(173.4375,75.75)"/>
<path d="M0 0 C1.32 0.66 2.64 1.32 4 2 C3.01 2.33 2.02 2.66 1 3 C1 7.62 1 12.24 1 17 C3.083125 16.54625 5.16625 16.0925 7.3125 15.625 C8.48425781 15.36976562 9.65601563 15.11453125 10.86328125 14.8515625 C14.12920445 14.14304469 14.12920445 14.14304469 17 12 C17.99 12.66 18.98 13.32 20 14 C20 14.66 20 15.32 20 16 C20.66 16 21.32 16 22 16 C21.67 16.66 21.34 17.32 21 18 C14.4 18 7.8 18 1 18 C1 29.22 1 40.44 1 52 C-0.65 51.67 -2.3 51.34 -4 51 C-4 40.44 -4 29.88 -4 19 C-8.95 19.66 -13.9 20.32 -19 21 C-19 23.97 -19 26.94 -19 30 C-17.68 29.34 -16.36 28.68 -15 28 C-14.01 28 -13.02 28 -12 28 C-12 33.94 -12 39.88 -12 46 C-18.27 46 -24.54 46 -31 46 C-32.60670684 42.78658631 -31.82510855 39.37041032 -31.5625 35.875 C-31.48418945 34.74384766 -31.48418945 34.74384766 -31.40429688 33.58984375 C-31.27454996 31.7262063 -31.13792512 29.86305004 -31 28 C-28.61435923 28.57584432 -26.33317216 29.22227595 -24 30 C-23.67 28.02 -23.34 26.04 -23 24 C-24.32 24 -25.64 24 -27 24 C-27 22.02 -27 20.04 -27 18 C-26.34 17.67 -25.68 17.34 -25 17 C-25.33 18.32 -25.66 19.64 -26 21 C-25.01 20.67 -24.02 20.34 -23 20 C-22.67 19.34 -22.34 18.68 -22 18 C-20.68 18.66 -19.36 19.32 -18 20 C-17.71125 19.38125 -17.4225 18.7625 -17.125 18.125 C-16 16 -16 16 -14 14 C-14 15.32 -14 16.64 -14 18 C-11.03 17.67 -8.06 17.34 -5 17 C-5 12.05 -5 7.1 -5 2 C-4.34 1.67 -3.68 1.34 -3 1 C-3 5.95 -3 10.9 -3 16 C-2.34 16 -1.68 16 -1 16 C-0.67 10.72 -0.34 5.44 0 0 Z M-28 43 C-24 44 -24 44 -24 44 Z " fill="#544932" transform="translate(79,37)"/>
<path d="M0 0 C0.495 0.99 0.495 0.99 1 2 C4.96 2 8.92 2 13 2 C12.67 3.32 12.34 4.64 12 6 C11.34 6.33 10.68 6.66 10 7 C9.62311035 6.50346924 9.2462207 6.00693848 8.85791016 5.49536133 C6.22827634 3.37886893 4.59566938 3.79305863 1.2734375 4.07421875 C0.1596875 4.16509766 -0.9540625 4.25597656 -2.1015625 4.34960938 C-3.26429687 4.46111328 -4.42703125 4.57261719 -5.625 4.6875 C-6.79546875 4.77966797 -7.9659375 4.87183594 -9.171875 4.96679688 C-13.60736059 5.32911888 -13.60736059 5.32911888 -18 6 C-18.33 6.66 -18.66 7.32 -19 8 C-18.360625 8.28875 -17.72125 8.5775 -17.0625 8.875 C-15 10 -15 10 -14 12 C-14.99 12 -15.98 12 -17 12 C-16.34 14.31 -15.68 16.62 -15 19 C-17.49361571 17.79618552 -19.68143083 16.54571278 -22 15 C-22 14.34 -22 13.68 -22 13 C-22.66 13 -23.32 13 -24 13 C-24 14.98 -24 16.96 -24 19 C-22.35 19.33 -20.7 19.66 -19 20 C-19.30887453 22.43800966 -19.62194662 24.87535367 -19.9375 27.3125 C-20.02451172 28.00279297 -20.11152344 28.69308594 -20.20117188 29.40429688 C-20.59210135 32.40142288 -21.0415004 35.12450119 -22 38 C-22.03874921 39.66621616 -22.0450286 41.33394172 -22 43 C-20.35 42.01 -18.7 41.02 -17 40 C-16.67 41.98 -16.34 43.96 -16 46 C-16.969375 46.12375 -17.93875 46.2475 -18.9375 46.375 C-19.948125 46.58125 -20.95875 46.7875 -22 47 C-22.33 47.66 -22.66 48.32 -23 49 C-23.66 48.67 -24.32 48.34 -25 48 C-25.60383547 44.34850439 -25.74506916 40.69649725 -26 37 C-30.62 36.01 -35.24 35.02 -40 34 C-40.2586761 27.01574534 -40.29768187 22.1831535 -37 16 C-34.69 16.33 -32.38 16.66 -30 17 C-29.95875 15.72125 -29.9175 14.4425 -29.875 13.125 C-29.84019531 12.04605469 -29.84019531 12.04605469 -29.8046875 10.9453125 C-29.81668311 8.76136355 -29.81668311 8.76136355 -32 7 C-32.1875 4.4375 -32.1875 4.4375 -32 2 C-31 1 -31 1 -28 0.875 C-25 1 -25 1 -24 2 C-16.88418697 2.5072068 -6.43792779 3.2189639 0 0 Z M-34 27 C-33 29 -33 29 -33 29 Z " fill="#5C8B98" transform="translate(79,5)"/>
<path d="M0 0 C1.67542976 0.28604898 3.34385343 0.61781233 5 1 C5.125 3.875 5.125 3.875 5 7 C4.34 7.66 3.68 8.32 3 9 C2.75746187 11.21072977 2.75746187 11.21072977 2.875 13.625 C2.90207031 14.85089844 2.90207031 14.85089844 2.9296875 16.1015625 C2.95289062 16.72804688 2.97609375 17.35453125 3 18 C4.32 18 5.64 18 7 18 C7 17.34 7 16.68 7 16 C8.32 16.33 9.64 16.66 11 17 C12.38011717 22.43421134 13.35111062 27.38223003 13 33 C12 34 12 34 8.4375 34.0625 C7.303125 34.041875 6.16875 34.02125 5 34 C5.25518471 36.27264504 5.52969061 38.54312705 5.8125 40.8125 C5.96332031 42.07707031 6.11414063 43.34164062 6.26953125 44.64453125 C7.01030964 48.04735819 7.46353278 48.84951692 10 51 C10.1875 53.6875 10.1875 53.6875 10 56 C9.76539062 55.42765625 9.53078125 54.8553125 9.2890625 54.265625 C7.70593415 51.48315699 5.8008475 49.82929786 3.375 47.75 C2.55773437 47.04359375 1.74046875 46.3371875 0.8984375 45.609375 C0.27195312 45.07828125 -0.35453125 44.5471875 -1 44 C-0.01 43.34 0.98 42.68 2 42 C2.73606499 38.43230448 2.73606499 38.43230448 3 35 C-1.455 35.495 -1.455 35.495 -6 36 C-6.99 32.04 -7.98 28.08 -9 24 C-9.66 24 -10.32 24 -11 24 C-11.28875 23.195625 -11.5775 22.39125 -11.875 21.5625 C-12.73262568 18.8673532 -12.73262568 18.8673532 -15 18 C-10.375 12.25 -10.375 12.25 -7 10 C-6.67 9.01 -6.34 8.02 -6 7 C-9.96 7 -13.92 7 -18 7 C-18 6.67 -18 6.34 -18 6 C-15.87630763 5.63807496 -13.7509887 5.28568253 -11.625 4.9375 C-9.84996094 4.64166016 -9.84996094 4.64166016 -8.0390625 4.33984375 C-5 4 -5 4 -3 5 C-2.690625 4.360625 -2.38125 3.72125 -2.0625 3.0625 C-1 1 -1 1 0 0 Z M-5 16 C-5 16.99 -5 17.98 -5 19 C-3.68 19 -2.36 19 -1 19 C-1 17.35 -1 15.7 -1 14 C-2.46225016 13.90754997 -2.46225016 13.90754997 -5 16 Z " fill="#CFBA8D" transform="translate(98,0)"/>
<path d="M0 0 C5.62652192 0.01043192 11.25304873 0.0148391 16.87957764 0.01983643 C27.8196941 0.03039934 38.75978968 0.04734909 49.69989014 0.06866455 C50.02989014 1.38866455 50.35989014 2.70866455 50.69989014 4.06866455 C37.53329106 4.24079504 24.36662483 4.40723599 11.19989014 4.56866455 C9.74717398 4.58648043 9.74717398 4.58648043 8.26511002 4.60465622 C-21.92475734 4.97315184 -52.10764728 5.22537701 -82.30010986 5.06866455 C-81.97010986 3.74866455 -81.64010986 2.42866455 -81.30010986 1.06866455 C-54.19838767 0.00685599 -27.11926318 -0.05580613 0 0 Z " fill="#90874D" transform="translate(167.30010986328125,117.93133544921875)"/>
<path d="M0 0 C0.08809201 3.81235104 0.1407549 7.62443553 0.1875 11.4375 C0.21263672 12.50677734 0.23777344 13.57605469 0.26367188 14.67773438 C0.32372703 21.22374585 -0.07800457 27.04372211 -3 33 C-5.44988842 35.44988842 -6.56604793 35.7658669 -10 36 C-14.11259851 34.43721257 -16.8331502 32.8775207 -19 29 C-20.27272727 24.54545455 -20.27272727 24.54545455 -19 22 C-14.75177626 22.47202486 -12.80010291 24.96655518 -10 28 C-7.75675164 26.18806994 -7.75675164 26.18806994 -7.8046875 23.6171875 C-7.82789062 22.71226563 -7.85109375 21.80734375 -7.875 20.875 C-7.89304687 19.96492188 -7.91109375 19.05484375 -7.9296875 18.1171875 C-7.95289062 17.41851562 -7.97609375 16.71984375 -8 16 C-8.60714844 16.49628906 -9.21429688 16.99257812 -9.83984375 17.50390625 C-12 19 -12 19 -14.5625 18.9375 C-17.69850725 17.73134336 -18.61016891 17.08851354 -20 14 C-20.21212534 9.46051768 -19.58217312 5.97721916 -17.25 2.0625 C-12.18269326 -2.58253118 -6.25152133 -3.12576066 0 0 Z M-13 7 C-13.72382467 9.05925139 -13.72382467 9.05925139 -14 11 C-13.01 10.67 -12.02 10.34 -11 10 C-9.78130071 7.49552484 -9.78130071 7.49552484 -9 5 C-10.46225016 4.90754997 -10.46225016 4.90754997 -13 7 Z " fill="#A2944E" transform="translate(82,94)"/>
<path d="M0 0 C1.66611905 -0.042721 3.33382885 -0.04063832 5 0 C6.8948467 1.8948467 6.39535369 5.14846799 6.5625 7.6875 C6.68818359 9.51861328 6.68818359 9.51861328 6.81640625 11.38671875 C7 15 7 15 6.90625 18.171875 C7.005969 21.18006481 7.59683133 22.89547584 8.9375 25.5625 C11.80159015 31.62703252 11.80159015 31.62703252 12 35 C11.34 35.99 10.68 36.98 10 38 C8.125 37.6875 8.125 37.6875 6 37 C5.34 36.01 4.68 35.02 4 34 C2.68 34 1.36 34 0 34 C0 34.66 0 35.32 0 36 C-4.15217057 37.58177926 -7.54736965 38.40478458 -12 38 C-12.66 37.34 -13.32 36.68 -14 36 C-13.8862798 30.08654944 -12.13669016 27.13669016 -8 23 C-3.7 20 -3.7 20 -1 20 C-1.01160156 18.72382812 -1.02320313 17.44765625 -1.03515625 16.1328125 C-1.04453417 14.46354313 -1.05363437 12.79427217 -1.0625 11.125 C-1.07087891 10.28324219 -1.07925781 9.44148438 -1.08789062 8.57421875 C-1.09111328 7.76855469 -1.09433594 6.96289062 -1.09765625 6.1328125 C-1.10289307 5.38918457 -1.10812988 4.64555664 -1.11352539 3.87939453 C-1 2 -1 2 0 0 Z M-5 29 C-5.33 29.66 -5.66 30.32 -6 31 C-5.01 30.67 -4.02 30.34 -3 30 C-3.66 29.67 -4.32 29.34 -5 29 Z " fill="#EED655" transform="translate(137,77)"/>
<path d="M0 0 C2.51288468 3.48662749 3.6863764 6.84719099 4.6875 11 C4.93886719 12.010625 5.19023438 13.02125 5.44921875 14.0625 C5.96150074 16.79467062 6.10693049 19.22999123 6 22 C3.6875 22.6875 3.6875 22.6875 1 23 C-1.58503711 21.18089981 -2.72431911 18.84574968 -4 16 C-4.680625 16.969375 -5.36125 17.93875 -6.0625 18.9375 C-8.31419539 21.64466653 -9.02098488 22.00615074 -12.625 23.0625 C-16 23 -16 23 -17.9375 21.9375 C-19.55529641 18.98740066 -19.50506897 17.34608194 -19 14 C-15.91917927 6.85420746 -8.64172115 -2.21067285 0 0 Z " fill="#D0BF64" transform="translate(55,92)"/>
<path d="M0 0 C1.65 0.33 3.3 0.66 5 1 C5.33 2.65 5.66 4.3 6 6 C7.423125 5.938125 7.423125 5.938125 8.875 5.875 C12 6 12 6 14 8 C14.30599063 10.56916657 14.51087087 13.04758384 14.625 15.625 C14.66367188 16.33140625 14.70234375 17.0378125 14.7421875 17.765625 C14.83647724 19.50998524 14.91932891 21.25495691 15 23 C10.64409432 24.62849969 6.76065388 25.34118446 2.125 25.625 C0.97257812 25.69976562 -0.17984375 25.77453125 -1.3671875 25.8515625 C-2.23601562 25.90054688 -3.10484375 25.94953125 -4 26 C-5.63890777 21.70270639 -6.22701646 18.21574068 -6.125 13.625 C-6.10695313 12.56539062 -6.08890625 11.50578125 -6.0703125 10.4140625 C-6.04710938 9.61742188 -6.02390625 8.82078125 -6 8 C-3.69 8 -1.38 8 1 8 C0.67 5.36 0.34 2.72 0 0 Z " fill="#97555D" transform="translate(101,55)"/>
<path d="M0 0 C0.33 0 0.66 0 1 0 C1 2.31 1 4.62 1 7 C3.97 6.34 6.94 5.68 10 5 C10 10.94 10 16.88 10 23 C3.73 23 -2.54 23 -9 23 C-10.60670684 19.78658631 -9.82510855 16.37041032 -9.5625 12.875 C-9.51029297 12.12089844 -9.45808594 11.36679688 -9.40429688 10.58984375 C-9.27454996 8.7262063 -9.13792512 6.86305004 -9 5 C-4.545 5.99 -4.545 5.99 0 7 C0 4.69 0 2.38 0 0 Z M-6 20 C-2 21 -2 21 -2 21 Z " fill="#959686" transform="translate(57,60)"/>
<path d="M0 0 C2.67854871 3.28730979 2.2863637 6.91931732 2 11 C0.88787622 14.98511021 -0.68662571 17.49258162 -4 20 C-7.4375 21.0625 -7.4375 21.0625 -11 21 C-13.678348 18.84567661 -15.46254419 17.07491161 -17 14 C-17.58283569 8.2687824 -17.16422452 4.88695167 -13.48828125 0.3515625 C-9.39015835 -3.37009242 -4.59220228 -2.1917329 0 0 Z M-8 6 C-9.35618499 7.12534105 -9.35618499 7.12534105 -9.0625 10.0625 C-9.041875 11.031875 -9.02125 12.00125 -9 13 C-7.68 12.34 -6.36 11.68 -5 11 C-5 9.35 -5 7.7 -5 6 C-5.99 6 -6.98 6 -8 6 Z " fill="#EAD55E" transform="translate(101,94)"/>
<path d="M0 0 C0.78246094 -0.02578125 1.56492188 -0.0515625 2.37109375 -0.078125 C4.5625 0.25 4.5625 0.25 6.2890625 1.50390625 C8.66352341 4.75968547 8.77848142 8.31151536 8.5625 12.25 C7.40575852 16.07114603 6.07524107 19.28650974 2.63671875 21.4765625 C-0.69558663 22.71911705 -3.05220643 22.15677506 -6.4375 21.25 C-9.07599141 19.08508398 -10.21234239 17.51041839 -10.81640625 14.12890625 C-11.09982301 8.70741797 -10.0375239 5.48532223 -6.4375 1.25 C-4.11063547 0.08656773 -2.59028587 0.05104012 0 0 Z M-0.4375 6.25 C-2.0858633 8.00244247 -2.0858633 8.00244247 -3.4375 10.25 C-3.22032648 12.45800528 -3.22032648 12.45800528 -2.4375 14.25 C-1.1175 13.59 0.2025 12.93 1.5625 12.25 C1.5625 10.6 1.5625 8.95 1.5625 7.25 C0.9025 6.92 0.2425 6.59 -0.4375 6.25 Z " fill="#B0A452" transform="translate(159.4375,92.75)"/>
<path d="M0 0 C1.2684375 0.12375 1.2684375 0.12375 2.5625 0.25 C4.74195746 3.51918619 4.7957905 4.37549273 4.72265625 8.14453125 C4.71169922 9.10037109 4.70074219 10.05621094 4.68945312 11.04101562 C4.66818359 12.03810547 4.64691406 13.03519531 4.625 14.0625 C4.41384647 22.70451268 4.41384647 22.70451268 5.5625 31.25 C6.2225 30.92 6.8825 30.59 7.5625 30.25 C7.8125 33.0625 7.8125 33.0625 7.5625 36.25 C5.875 38.1875 5.875 38.1875 3.5625 39.25 C0.8125 38.9375 0.8125 38.9375 -1.4375 38.25 C-3.21990748 33.65335787 -3.68399439 29.83595463 -3.66796875 24.91796875 C-3.66751053 24.24075272 -3.66705231 23.56353668 -3.6665802 22.86579895 C-3.66357815 21.44640329 -3.65575385 20.02701031 -3.64331055 18.60766602 C-3.624907 16.42647779 -3.62280215 14.24571136 -3.62304688 12.06445312 C-3.58148999 0.36733231 -3.58148999 0.36733231 0 0 Z " fill="#A5994E" transform="translate(173.4375,75.75)"/>
<path d="M0 0 C2.375 0.5625 2.375 0.5625 5 2 C6.61644092 5.9676277 7.51235671 8.91663688 6 13 C6 13.66 6 14.32 6 15 C5.01 15 4.02 15 3 15 C3.33 15.99 3.66 16.98 4 18 C4.08178114 19.70016844 4.10749501 21.40336297 4.09765625 23.10546875 C4.09443359 24.08837891 4.09121094 25.07128906 4.08789062 26.08398438 C4.07951172 27.10814453 4.07113281 28.13230469 4.0625 29.1875 C4.05798828 30.22326172 4.05347656 31.25902344 4.04882812 32.32617188 C4.0370401 34.88417266 4.02058515 37.44205733 4 40 C2.02 40.495 2.02 40.495 0 41 C-2.75923662 37.07386758 -3.37618676 34.40506018 -3.36328125 29.6328125 C-3.36263672 28.41722656 -3.36199219 27.20164062 -3.36132812 25.94921875 C-3.34521484 24.68722656 -3.32910156 23.42523438 -3.3125 22.125 C-3.31572266 20.87074219 -3.31894531 19.61648437 -3.32226562 18.32421875 C-3.23444152 3.23444152 -3.23444152 3.23444152 0 0 Z " fill="#BAA94D" transform="translate(10,74)"/>
<path d="M0 0 C0.556875 0.37125 1.11375 0.7425 1.6875 1.125 C1.6875 2.445 1.6875 3.765 1.6875 5.125 C0.759375 5.24875 0.759375 5.24875 -0.1875 5.375 C-2.42428319 5.9090028 -2.42428319 5.9090028 -3.296875 7.78515625 C-4.97332435 11.64743763 -6.42079192 15.60099167 -7.8984375 19.54296875 C-9.3125 22.125 -9.3125 22.125 -11.4765625 22.98828125 C-12.08242187 23.03339844 -12.68828125 23.07851562 -13.3125 23.125 C-17.33272395 18.73930115 -18.1358946 13.50917295 -18.5625 7.75 C-18.3125 5.125 -18.3125 5.125 -16.3125 3.125 C-14.04975212 3.47855436 -12.36161148 4.10044426 -10.3125 5.125 C-9.920625 4.50625 -9.52875 3.8875 -9.125 3.25 C-6.47475829 0.14282006 -4.00471482 -1.5152975 0 0 Z " fill="#E4D054" transform="translate(122.3125,91.875)"/>
<path d="M0 0 C1.34892334 -0.00676758 1.34892334 -0.00676758 2.72509766 -0.01367188 C8.75133555 0.00066777 8.75133555 0.00066777 11 1.125 C13.30724017 1.24620299 15.61796828 1.3025357 17.92822266 1.33032227 C18.64052536 1.34022186 19.35282806 1.35012146 20.0867157 1.36032104 C22.44579726 1.39195858 24.80489897 1.4167023 27.1640625 1.44140625 C28.79788747 1.46197384 30.43170708 1.48297026 32.06552124 1.50437927 C36.36942216 1.55962013 40.67337126 1.6090205 44.97735596 1.65722656 C49.36776018 1.7074269 53.75809429 1.76312061 58.1484375 1.81835938 C66.76556575 1.92596558 75.38275258 2.02740506 84 2.125 C84 2.455 84 2.785 84 3.125 C83.4297793 3.12923194 82.8595586 3.13346388 82.27205849 3.13782406 C68.40993039 3.24104024 54.54785453 3.34972698 40.68581581 3.46433926 C33.98229349 3.51966372 27.27876584 3.57314444 20.57519531 3.62231445 C14.11074288 3.66991442 7.64634491 3.72225559 1.18195724 3.77794075 C-1.28927893 3.79838413 -3.76053005 3.81709387 -6.23179245 3.83407402 C-9.68241553 3.85807415 -13.13293491 3.8881347 -16.58349609 3.91967773 C-18.12960823 3.92831093 -18.12960823 3.92831093 -19.70695496 3.93711853 C-20.64367538 3.94690735 -21.58039581 3.95669617 -22.54550171 3.96678162 C-23.77056458 3.97646044 -23.77056458 3.97646044 -25.02037621 3.9863348 C-27.07593911 4.0031269 -27.07593911 4.0031269 -29 5.125 C-30.44848582 5.20842159 -31.90070869 5.23232861 -33.3515625 5.22265625 C-34.20234375 5.21943359 -35.053125 5.21621094 -35.9296875 5.21289062 C-36.81914063 5.20451172 -37.70859375 5.19613281 -38.625 5.1875 C-39.5221875 5.18298828 -40.419375 5.17847656 -41.34375 5.17382812 C-43.56256648 5.16202591 -45.78125018 5.14556155 -48 5.125 C-47.67 3.805 -47.34 2.485 -47 1.125 C-13.89473893 0.02868345 -13.89473893 0.02868345 0 0 Z " fill="#C2B575" transform="translate(133,117.875)"/>
<path d="M0 0 C2.64 0.33 5.28 0.66 8 1 C7.67 3.31 7.34 5.62 7 8 C4.69 7.67 2.38 7.34 0 7 C2.3078491 8.15392455 4.47230331 8.53437166 7 9 C6.70703125 11.05078125 6.4140625 13.1015625 6.12109375 15.15234375 C6.08113281 15.76207031 6.04117188 16.37179688 6 17 C6.33 17.33 6.66 17.66 7 18 C7.33 16.35 7.66 14.7 8 13 C10.86724686 13.57344937 11.8614515 13.8614515 14 16 C14.66 15.34 15.32 14.68 16 14 C16.08226668 17.04386724 15.97608217 19.07175348 15 22 C14.96125079 23.66621616 14.9549714 25.33394172 15 27 C16.65 26.01 18.3 25.02 20 24 C20.33 25.98 20.66 27.96 21 30 C20.030625 30.12375 19.06125 30.2475 18.0625 30.375 C17.051875 30.58125 16.04125 30.7875 15 31 C14.67 31.66 14.34 32.32 14 33 C13.34 32.67 12.68 32.34 12 32 C11.39616453 28.34850439 11.25493084 24.69649725 11 21 C6.38 20.01 1.76 19.02 -3 18 C-3.2586761 11.01574534 -3.29768187 6.1831535 0 0 Z M3 11 C4 13 4 13 4 13 Z " fill="#2D5E77" transform="translate(42,21)"/>
<path d="M0 0 C0 1.66666667 0 3.33333333 0 5 C1.65 5 3.3 5 5 5 C5.33 5.66 5.66 6.32 6 7 C8.52733235 7.65555119 8.52733235 7.65555119 11 8 C11.16834933 9.77067416 11.33461909 11.54154612 11.5 13.3125 C11.5928125 14.29863281 11.685625 15.28476562 11.78125 16.30078125 C12 19 12 19 12 22 C12.99 22 13.98 22 15 22 C15.16435547 23.46373047 15.16435547 23.46373047 15.33203125 24.95703125 C15.49058594 26.22933594 15.64914063 27.50164063 15.8125 28.8125 C15.96332031 30.07707031 16.11414063 31.34164062 16.26953125 32.64453125 C17.01030964 36.04735819 17.46353278 36.84951692 20 39 C20.1875 41.6875 20.1875 41.6875 20 44 C19.76539062 43.42765625 19.53078125 42.8553125 19.2890625 42.265625 C17.70593415 39.48315699 15.8008475 37.82929786 13.375 35.75 C12.55773437 35.04359375 11.74046875 34.3371875 10.8984375 33.609375 C10.27195312 33.07828125 9.64546875 32.5471875 9 32 C9.99 31.34 10.98 30.68 12 30 C12.73606499 26.43230448 12.73606499 26.43230448 13 23 C10.03 23.33 7.06 23.66 4 24 C3.01 20.04 2.02 16.08 1 12 C0.34 12 -0.32 12 -1 12 C-1.28875 11.195625 -1.5775 10.39125 -1.875 9.5625 C-2.73262568 6.8673532 -2.73262568 6.8673532 -5 6 C-3.35 4.02 -1.7 2.04 0 0 Z " fill="#796743" transform="translate(88,12)"/>
<path d="M0 0 C1.65 0.33 3.3 0.66 5 1 C4.85919445 3.77117304 4.71256882 6.54182641 4.5625 9.3125 C4.52318359 10.09818359 4.48386719 10.88386719 4.44335938 11.69335938 C4.40146484 12.45068359 4.35957031 13.20800781 4.31640625 13.98828125 C4.27974854 14.68477783 4.24309082 15.38127441 4.20532227 16.09887695 C4 18 4 18 3 21 C2.34 21 1.68 21 1 21 C0.67 21.99 0.34 22.98 0 24 C-0.33 20.37 -0.66 16.74 -1 13 C-1.391875 13.804375 -1.78375 14.60875 -2.1875 15.4375 C-4 18 -4 18 -6.375 19.125 C-9 19 -9 19 -11.8125 16.9375 C-14.31020611 13.58343751 -14.47401764 12.07655174 -14 8 C-13.01 7.67 -12.02 7.34 -11 7 C-10.26676204 4.98491642 -10.26676204 4.98491642 -10 3 C-9.01 3 -8.02 3 -7 3 C-7.33 5.64 -7.66 8.28 -8 11 C-6.68 11 -5.36 11 -4 11 C-3.34 8.36 -2.68 5.72 -2 3 C-1.34 3 -0.68 3 0 3 C0 2.01 0 1.02 0 0 Z " fill="#DBC65F" transform="translate(76,94)"/>
<path d="M0 0 C3.00689163 0.14318532 5.24963677 0.30928103 7.5234375 2.40234375 C8.01070312 2.95019531 8.49796875 3.49804688 9 4.0625 C11.35708614 6.67524892 11.65140129 6.96126681 15.375 7.375 C16.674375 7.189375 16.674375 7.189375 18 7 C18.2475 6.38125 18.495 5.7625 18.75 5.125 C20.20628639 2.64931313 21.37812506 2.04874998 24 1 C24.6875 4.3125 24.6875 4.3125 25 8 C23.6875 9.9375 23.6875 9.9375 22 11 C21.34 11 20.68 11 20 11 C20 11.66 20 12.32 20 13 C17.03 13 14.06 13 11 13 C10.67 12.34 10.34 11.68 10 11 C8.88625 10.71125 7.7725 10.4225 6.625 10.125 C3 9 3 9 1.0625 7.1875 C-0.18689961 4.61520669 -0.23546771 2.82561258 0 0 Z " fill="#888B87" transform="translate(62,17)"/>
<path d="M0 0 C4.29051148 4.29051148 7.38920513 11.13670666 9 17 C8.75291096 20.50500386 7.85759756 23.03266884 6 26 C6.99 26 7.98 26 9 26 C9 27.65 9 29.3 9 31 C8.34 31 7.68 31 7 31 C4.69 26.38 2.38 21.76 0 17 C-0.33 22.28 -0.66 27.56 -1 33 C-1.33 33 -1.66 33 -2 33 C-2.02505615 32.43490723 -2.0501123 31.86981445 -2.07592773 31.28759766 C-2.19179956 28.73316258 -2.31456537 26.1791045 -2.4375 23.625 C-2.47681641 22.73554687 -2.51613281 21.84609375 -2.55664062 20.9296875 C-2.61948242 19.65351562 -2.61948242 19.65351562 -2.68359375 18.3515625 C-2.72025146 17.56604004 -2.75690918 16.78051758 -2.79467773 15.97119141 C-2.890891 13.92476504 -2.890891 13.92476504 -4 12 C-3.505 11.566875 -3.01 11.13375 -2.5 10.6875 C-0.66781808 9.00259517 -0.66781808 9.00259517 -1 6 C-0.67 6.33 -0.34 6.66 0 7 C0 4.69 0 2.38 0 0 Z " fill="#A99747" transform="translate(16,79)"/>
<path d="M0 0 C1.32 0.33 2.64 0.66 4 1 C3.01 1.33 2.02 1.66 1 2 C1.33 2.94875 1.66 3.8975 2 4.875 C2.48565086 7.94658403 2.01278654 8.97907382 0.35546875 11.69140625 C-1.67071673 14.25790786 -3.66432922 16.71039767 -6 19 C-6.66 19 -7.32 19 -8 19 C-8.309375 19.61875 -8.61875 20.2375 -8.9375 20.875 C-9.625 22.25 -10.3125 23.625 -11 25 C-12.32 24.67 -13.64 24.34 -15 24 C-15 24.66 -15 25.32 -15 26 C-16.32 26 -17.64 26 -19 26 C-18.67 24.68 -18.34 23.36 -18 22 C-17.34 22 -16.68 22 -16 22 C-15.67 21.01 -15.34 20.02 -15 19 C-13.02 19 -11.04 19 -9 19 C-9.28875 17.989375 -9.5775 16.97875 -9.875 15.9375 C-10.03010362 11.05173585 -8.79187987 9.76530422 -5.640625 6.28515625 C-4 5 -4 5 -1 5 C-0.67 3.35 -0.34 1.7 0 0 Z " fill="#D8BE78" transform="translate(72,32)"/>
<path d="M0 0 C1.12775345 0.00212242 1.12775345 0.00212242 2.27828979 0.00428772 C4.6829626 0.0098916 7.08754277 0.02244468 9.4921875 0.03515625 C11.12109241 0.04017075 12.74999877 0.04473375 14.37890625 0.04882812 C18.37503577 0.05986228 22.37109592 0.07712946 26.3671875 0.09765625 C26.8621875 2.07765625 26.8621875 2.07765625 27.3671875 4.09765625 C15.1571875 4.09765625 2.9471875 4.09765625 -9.6328125 4.09765625 C-9.6328125 3.10765625 -9.6328125 2.11765625 -9.6328125 1.09765625 C-6.56686656 -0.43531672 -3.36169397 -0.0236583 0 0 Z " fill="#AA9D69" transform="translate(30.6328125,118.90234375)"/>
<path d="M0 0 C1.66611905 -0.042721 3.33382885 -0.04063832 5 0 C6.8948467 1.8948467 6.39535369 5.14846799 6.5625 7.6875 C6.64628906 8.90824219 6.73007813 10.12898438 6.81640625 11.38671875 C7 15 7 15 6.90625 18.171875 C7.005969 21.18006481 7.59683133 22.89547584 8.9375 25.5625 C11.80159015 31.62703252 11.80159015 31.62703252 12 35 C11.34 35.99 10.68 36.98 10 38 C8.68 37.67 7.36 37.34 6 37 C6 36.01 6 35.02 6 34 C7.32 34.66 8.64 35.32 10 36 C9.22969878 32.51190809 9.22969878 32.51190809 8 29 C7.01 28.67 6.02 28.34 5 28 C5 26.35 5 24.7 5 23 C3.68 22.67 2.36 22.34 1 22 C1 21.01 1 20.02 1 19 C1.66 19 2.32 19 3 19 C3.33 13.72 3.66 8.44 4 3 C3.34 3 2.68 3 2 3 C2 3.66 2 4.32 2 5 C1.34 5 0.68 5 0 5 C0 10.28 0 15.56 0 21 C-1.32 21.33 -2.64 21.66 -4 22 C-3.67 21.34 -3.34 20.68 -3 20 C-2.34 20 -1.68 20 -1 20 C-1.01160156 18.72382812 -1.02320313 17.44765625 -1.03515625 16.1328125 C-1.04453417 14.46354313 -1.05363437 12.79427217 -1.0625 11.125 C-1.07087891 10.28324219 -1.07925781 9.44148438 -1.08789062 8.57421875 C-1.09111328 7.76855469 -1.09433594 6.96289062 -1.09765625 6.1328125 C-1.10289307 5.38918457 -1.10812988 4.64555664 -1.11352539 3.87939453 C-1 2 -1 2 0 0 Z " fill="#DBC66D" transform="translate(137,77)"/>
<path d="M0 0 C3 2 3 2 4 5 C4.32278069 10.81005233 3.81973557 14.57368591 0.3125 19.25 C-2.87860134 21.6648875 -5.01144803 22.0699746 -9 22 C-11.678348 19.84567661 -13.46254419 18.07491161 -15 15 C-15.36761488 9.21006565 -15.36761488 9.21006565 -15 7 C-14.01 6.01 -13.02 5.02 -12 4 C-12.33 7.63 -12.66 11.26 -13 15 C-12.01 15.33 -11.02 15.66 -10 16 C-9.34 16.66 -8.68 17.32 -8 18 C-6.68 18 -5.36 18 -4 18 C-5.65 17.67 -7.3 17.34 -9 17 C-8.67 14.03 -8.34 11.06 -8 8 C-7.67 8 -7.34 8 -7 8 C-7 9.98 -7 11.96 -7 14 C-5.68 13.34 -4.36 12.68 -3 12 C-3 12.66 -3 13.32 -3 14 C-1.35 14.33 0.3 14.66 2 15 C1.85879286 13.06215735 1.71187127 11.12473045 1.5625 9.1875 C1.48128906 8.10855469 1.40007812 7.02960938 1.31640625 5.91796875 C1.09787539 2.94010095 1.09787539 2.94010095 0 0 Z " fill="#998D47" transform="translate(99,93)"/>
<path d="M0 0 C0.66 0.33 1.32 0.66 2 1 C2.31241371 3.54941373 2.51303421 6.00361513 2.625 8.5625 C2.66367188 9.27341797 2.70234375 9.98433594 2.7421875 10.71679688 C2.83671783 12.47742425 2.91945817 14.23867728 3 16 C-0.58597115 17.26441757 -3.97001101 18.30682888 -7.75 18.75 C-8.50796875 18.84796875 -9.2659375 18.9459375 -10.046875 19.046875 C-12 19 -12 19 -14 17 C-14 16.01 -14 15.02 -14 14 C-11.69 14 -9.38 14 -7 14 C-7 12.68 -7 11.36 -7 10 C-7 9.34 -7 8.68 -7 8 C-3.535 7.505 -3.535 7.505 0 7 C0 4.69 0 2.38 0 0 Z " fill="#65333D" transform="translate(113,62)"/>
<path d="M0 0 C2.0625 0.4375 2.0625 0.4375 4 1 C4.1170409 10.40228594 3.88495497 19.62895894 3 29 C2.01 28.67 1.02 28.34 0 28 C-1.18844008 22.38792186 -1.14830682 16.89378547 -1.125 11.1875 C-1.12886719 10.22134766 -1.13273437 9.25519531 -1.13671875 8.25976562 C-1.13542969 7.34259766 -1.13414063 6.42542969 -1.1328125 5.48046875 C-1.13168457 4.64410889 -1.13055664 3.80774902 -1.12939453 2.94604492 C-1 1 -1 1 0 0 Z " fill="#ECD96F" transform="translate(29,71)"/>
<path d="M0 0 C1.75 0.125 1.75 0.125 4 1 C6.25 4.0625 6.25 4.0625 8 7 C10.92879371 6.37240135 13.36095629 5.41377341 16 4 C16.33 4.66 16.66 5.32 17 6 C16.34 6 15.68 6 15 6 C15 7.98 15 9.96 15 12 C11.3185061 13.66543772 9.69588216 14.24560547 5.8125 12.875 C2.13533467 10.42355645 0.46624558 8.63185953 -0.75 4.375 C-1 2 -1 2 0 0 Z " fill="#C5B464" transform="translate(63,116)"/>
<path d="M0 0 C1.32 0 2.64 0 4 0 C4.05831395 4.04160556 4.09370212 8.08310205 4.125 12.125 C4.14175781 13.26710938 4.15851563 14.40921875 4.17578125 15.5859375 C4.18222656 16.69453125 4.18867188 17.803125 4.1953125 18.9453125 C4.20578613 19.96125488 4.21625977 20.97719727 4.22705078 22.02392578 C3.97841818 25.28288429 3.14878364 27.95115207 2 31 C1.34 30.67 0.68 30.34 0 30 C0 20.1 0 10.2 0 0 Z " fill="#EFDA6F" transform="translate(172,77)"/>
<path d="M0 0 C2.93453261 0.36681658 3.86437246 0.86437246 6 3 C6 3.99 6 4.98 6 6 C5.34 6 4.68 6 4 6 C4 5.01 4 4.02 4 3 C3.01 3 2.02 3 1 3 C1.33 6.63 1.66 10.26 2 14 C3.32 14 4.64 14 6 14 C6.33 12.02 6.66 10.04 7 8 C7.99 8 8.98 8 10 8 C10.33 6.35 10.66 4.7 11 3 C11.99 3 12.98 3 14 3 C13.57847656 3.79857422 13.57847656 3.79857422 13.1484375 4.61328125 C11.30770668 8.43874564 9.90352683 12.44446228 8.4140625 16.41796875 C7 19 7 19 4.8359375 19.86328125 C4.23007813 19.90839844 3.62421875 19.95351562 3 20 C-1.02022395 15.61430115 -1.8233946 10.38417295 -2.25 4.625 C-2 2 -2 2 0 0 Z " fill="#908141" transform="translate(106,95)"/>
<path d="M0 0 C1.98 0.495 1.98 0.495 4 1 C3.01 1.495 3.01 1.495 2 2 C1.68658574 4.55757859 1.48771761 6.99643821 1.375 9.5625 C1.25125 12.016875 1.1275 14.47125 1 17 C6.61 17 12.22 17 18 17 C18 14.69 18 12.38 18 10 C15.36 10 12.72 10 10 10 C10 9.34 10 8.68 10 8 C15.75 7.875 15.75 7.875 18 9 C18 8.34 18 7.68 18 7 C15.69 7 13.38 7 11 7 C11 5.68 11 4.36 11 3 C13.74997221 1.5268006 15.89619499 0.77595125 19 0 C19 5.94 19 11.88 19 18 C12.73 18 6.46 18 0 18 C-1.60670684 14.78658631 -0.82510855 11.37041032 -0.5625 7.875 C-0.51029297 7.12089844 -0.45808594 6.36679688 -0.40429688 5.58984375 C-0.27454996 3.7262063 -0.13792512 1.86305004 0 0 Z " fill="#545852" transform="translate(48,65)"/>
<path d="M0 0 C2.51231378 2.51231378 2.78661713 4.37851766 3.625 7.8125 C3.88539062 8.85019531 4.14578125 9.88789062 4.4140625 10.95703125 C4.94914218 13.73587837 5.11460481 16.18176362 5 19 C2.6875 19.6875 2.6875 19.6875 0 20 C-2.58503711 18.18089981 -3.72431911 15.84574968 -5 13 C-6.65 14.65 -8.3 16.3 -10 18 C-9.67 16.35 -9.34 14.7 -9 13 C-8.34 13 -7.68 13 -7 13 C-7 12.01 -7 11.02 -7 10 C-4.69 10.33 -2.38 10.66 0 11 C0 7.37 0 3.74 0 0 Z " fill="#AA9C4E" transform="translate(56,95)"/>
<path d="M0 0 C1.98 0 3.96 0 6 0 C5.98839844 0.74765625 5.97679687 1.4953125 5.96484375 2.265625 C5.95582031 3.25046875 5.94679687 4.2353125 5.9375 5.25 C5.92589844 6.22453125 5.91429687 7.1990625 5.90234375 8.203125 C5.98804423 10.65758678 6.29293934 12.66168914 7 15 C6.01 15.66 5.02 16.32 4 17 C3.67 15.35 3.34 13.7 3 12 C1.35 12 -0.3 12 -2 12 C-2 10.35 -2 8.7 -2 7 C-2.99 7.33 -3.98 7.66 -5 8 C-5 7.34 -5 6.68 -5 6 C-5.66 5.67 -6.32 5.34 -7 5 C-5.06729418 3.06729418 -1.61358612 3.37336945 1 3 C1.33 2.67 1.66 2.34 2 2 C1.34 1.34 0.68 0.68 0 0 Z " fill="#E5D265" transform="translate(194,93)"/>
<path d="M0 0 C4.07065572 0.58014096 6.53918962 2.7111756 9.6875 5.25 C10.66074219 6.01828125 11.63398437 6.7865625 12.63671875 7.578125 C15.16109713 10.16509128 15.72985453 11.45669668 16 15 C14.35 15 12.7 15 11 15 C10.67 14.01 10.34 13.02 10 12 C9.34 12 8.68 12 8 12 C7.525625 11.505 7.05125 11.01 6.5625 10.5 C5.00030058 8.65373409 5.00030058 8.65373409 2 9 C0.14223235 5.86501708 -0.20140476 3.62528568 0 0 Z " fill="#D8BB9A" transform="translate(91,41)"/>
<path d="M0 0 C0.33 0 0.66 0 1 0 C1 2.31 1 4.62 1 7 C3.64 7 6.28 7 9 7 C7.75 8.5 7.75 8.5 6 10 C4.68 10 3.36 10 2 10 C2 10.66 2 11.32 2 12 C4.31 12 6.62 12 9 12 C9 12.66 9 13.32 9 14 C3.72 13.67 -1.56 13.34 -7 13 C-7 15.97 -7 18.94 -7 22 C-7.33 22 -7.66 22 -8 22 C-8 16.72 -8 11.44 -8 6 C-5.36 6.33 -2.72 6.66 0 7 C0 4.69 0 2.38 0 0 Z " fill="#DBDCCB" transform="translate(57,60)"/>
<path d="M0 0 C0 0.33 0 0.66 0 1 C-1.65 1 -3.3 1 -5 1 C-4.67 1.99 -4.34 2.98 -4 4 C-5 5 -5 5 -8.0625 5.0625 C-9.031875 5.041875 -10.00125 5.02125 -11 5 C-11 5.66 -11 6.32 -11 7 C-9.35 7 -7.7 7 -6 7 C-6.50109958 11.38462134 -7.98295115 13.8000997 -11 17 C-11.66 17 -12.32 17 -13 17 C-12.34 14.36 -11.68 11.72 -11 9 C-11.33 9.99 -11.66 10.98 -12 12 C-13.65 12.33 -15.3 12.66 -17 13 C-17.33 15.31 -17.66 17.62 -18 20 C-18.33 20 -18.66 20 -19 20 C-19.62952686 14.96378512 -18.37744428 12.02909639 -15.62109375 7.96875 C-11.40467938 2.84809255 -6.94386044 -1.04157907 0 0 Z " fill="#93863A" transform="translate(55,92)"/>
<path d="M0 0 C0.33 0.66 0.66 1.32 1 2 C4.96 2 8.92 2 13 2 C12.67 3.32 12.34 4.64 12 6 C11.34 6.33 10.68 6.66 10 7 C9.62238525 6.50346924 9.24477051 6.00693848 8.85571289 5.49536133 C6.23476731 3.383364 4.621508 3.79209582 1.30859375 4.07421875 C0.19935547 4.16509766 -0.90988281 4.25597656 -2.05273438 4.34960938 C-3.21095703 4.46111328 -4.36917969 4.57261719 -5.5625 4.6875 C-6.72458984 4.77966797 -7.88667969 4.87183594 -9.08398438 4.96679688 C-15.11748923 5.11437405 -15.11748923 5.11437405 -20 8 C-21.65 6.68 -23.3 5.36 -25 4 C-24.67 3.34 -24.34 2.68 -24 2 C-23.41734375 2.01160156 -22.8346875 2.02320313 -22.234375 2.03515625 C-10.80603575 2.60978394 -10.80603575 2.60978394 0 0 Z " fill="#4F5758" transform="translate(79,5)"/>
<path d="M0 0 C0.33 0 0.66 0 1 0 C1 10.89 1 21.78 1 33 C0.01 33 -0.98 33 -2 33 C-2.04954711 28.94323508 -2.085789 24.88658806 -2.10986328 20.82958984 C-2.11990253 19.45032685 -2.13353677 18.07108504 -2.15087891 16.69189453 C-2.17521754 14.7061486 -2.18543255 12.7202455 -2.1953125 10.734375 C-2.20578613 9.54038086 -2.21625977 8.34638672 -2.22705078 7.11621094 C-2.01034762 4.14201836 -1.56186122 2.49681621 0 0 Z " fill="#9B7C4B" transform="translate(78,55)"/>
<path d="M0 0 C1.98 0 3.96 0 6 0 C6.19551338 1.60320974 6.38111983 3.20762986 6.5625 4.8125 C6.66691406 5.70582031 6.77132812 6.59914063 6.87890625 7.51953125 C7 10 7 10 6 13 C5.01 13 4.02 13 3 13 C3 12.34 3 11.68 3 11 C1.68 11 0.36 11 -1 11 C-1 9.35 -1 7.7 -1 6 C-2.65 6 -4.3 6 -6 6 C-6 5.34 -6 4.68 -6 4 C-4.02 3.67 -2.04 3.34 0 3 C0 2.01 0 1.02 0 0 Z " fill="#F8D95E" transform="translate(50,93)"/>
<path d="M0 0 C0.1875 3.125 0.1875 3.125 0 6 C0.99 6 1.98 6 3 6 C3 8.31 3 10.62 3 13 C2.34 11.68 1.68 10.36 1 9 C0.443125 9.515625 -0.11375 10.03125 -0.6875 10.5625 C-3 12 -3 12 -5.75 11.6875 C-6.4925 11.460625 -7.235 11.23375 -8 11 C-6.62411965 7.29570676 -5.08109119 4.46848532 -3 1 C-6.96 1 -10.92 1 -15 1 C-15 0.67 -15 0.34 -15 0 C-13.06544546 -0.38991022 -11.12718172 -0.76145349 -9.1875 -1.125 C-8.10855469 -1.33382813 -7.02960938 -1.54265625 -5.91796875 -1.7578125 C-3 -2 -3 -2 0 0 Z " fill="#708E7E" transform="translate(95,6)"/>
<path d="M0 0 C0.99 0.33 1.98 0.66 3 1 C2.67 2.65 2.34 4.3 2 6 C3.65 6 5.3 6 7 6 C7.33 6.99 7.66 7.98 8 9 C6.68 9 5.36 9 4 9 C4.33 9.99 4.66 10.98 5 12 C4 13 4 13 2.15234375 13.09765625 C0.1015625 13.06510417 -1.94921875 13.03255208 -4 13 C-4 10.36 -4 7.72 -4 5 C-2.68 4.34 -1.36 3.68 0 3 C0 2.01 0 1.02 0 0 Z " fill="#F2DB67" transform="translate(185,100)"/>
<path d="M0 0 C1.65 0.33 3.3 0.66 5 1 C4.88613541 3.77170395 4.75939222 6.54178046 4.625 9.3125 C4.5940625 10.09818359 4.563125 10.88386719 4.53125 11.69335938 C4.49257812 12.45068359 4.45390625 13.20800781 4.4140625 13.98828125 C4.3826416 14.68477783 4.3512207 15.38127441 4.31884766 16.09887695 C4 18 4 18 2 21 C1 20 1 20 0.90234375 17.93359375 C0.91974609 16.69802734 0.91974609 16.69802734 0.9375 15.4375 C0.94652344 14.61121094 0.95554687 13.78492187 0.96484375 12.93359375 C0.97644531 12.29550781 0.98804687 11.65742187 1 11 C0.34 10.67 -0.32 10.34 -1 10 C-1.40729228 7.67843403 -1.74438677 5.3431213 -2 3 C-1.34 3 -0.68 3 0 3 C0 2.01 0 1.02 0 0 Z " fill="#F2DB67" transform="translate(76,94)"/>
<path d="M0 0 C1.43655854 -0.08131463 2.8744483 -0.13933559 4.3125 -0.1875 C5.51326172 -0.23970703 5.51326172 -0.23970703 6.73828125 -0.29296875 C9 0 9 0 10.734375 1.25 C13.09537135 4.51458755 13.21567831 8.06069907 13 12 C12.11063161 14.98288163 11.02452742 17.61677253 9 20 C6.85546875 20.71875 6.85546875 20.71875 5 21 C5.99 19.68 6.98 18.36 8 17 C7.34 16.67 6.68 16.34 6 16 C7.32 15.67 8.64 15.34 10 15 C10.33 12.36 10.66 9.72 11 7 C10.01 7 9.02 7 8 7 C7.67 8.65 7.34 10.3 7 12 C6.67 12 6.34 12 6 12 C5.67 10.35 5.34 8.7 5 7 C3.68 7.99 2.36 8.98 1 10 C1.875 6.125 1.875 6.125 3 5 C4.66617115 4.95936168 6.33388095 4.957279 8 5 C7.67 3.68 7.34 2.36 7 1 C4.69 1 2.38 1 0 1 C0 0.67 0 0.34 0 0 Z " fill="#A0904F" transform="translate(155,93)"/>
<path d="M0 0 C1.98 0 3.96 0 6 0 C6 0.99 6 1.98 6 3 C6.99 3 7.98 3 9 3 C9.10957031 3.97582031 9.21914062 4.95164062 9.33203125 5.95703125 C9.49058594 7.22933594 9.64914063 8.50164063 9.8125 9.8125 C9.96332031 11.07707031 10.11414063 12.34164062 10.26953125 13.64453125 C11.01030964 17.04735819 11.46353278 17.84951692 14 20 C14.1875 22.6875 14.1875 22.6875 14 25 C13.76539062 24.42765625 13.53078125 23.8553125 13.2890625 23.265625 C11.70593415 20.48315699 9.8008475 18.82929786 7.375 16.75 C6.14910156 15.69039062 6.14910156 15.69039062 4.8984375 14.609375 C4.27195312 14.07828125 3.64546875 13.5471875 3 13 C3.99 12.34 4.98 11.68 6 11 C6.73606499 7.43230448 6.73606499 7.43230448 7 4 C4.69 3.67 2.38 3.34 0 3 C0 2.01 0 1.02 0 0 Z " fill="#3F3D44" transform="translate(94,31)"/>
<path d="M0 0 C0.66 0.66 1.32 1.32 2 2 C1.63723355 4.82957829 0.90305236 7.29084291 0 10 C-0.99 10.33 -1.98 10.66 -3 11 C-3.33 11.66 -3.66 12.32 -4 13 C-6.3140622 13.73075648 -8.64828869 14.40138258 -11 15 C-11.66 13.68 -12.32 12.36 -13 11 C-12.34 11 -11.68 11 -11 11 C-11 10.34 -11 9.68 -11 9 C-11.66 8.67 -12.32 8.34 -13 8 C-11.68 8 -10.36 8 -9 8 C-8.67 8.66 -8.34 9.32 -8 10 C-7.01 9.67 -6.02 9.34 -5 9 C-4.19787372 7.12612784 -4.19787372 7.12612784 -3.8125 4.9375 C-3.57466797 3.83728516 -3.57466797 3.83728516 -3.33203125 2.71484375 C-3.22246094 2.14894531 -3.11289063 1.58304687 -3 1 C-2.01 1.33 -1.02 1.66 0 2 C0 1.34 0 0.68 0 0 Z " fill="#F2D969" transform="translate(165,98)"/>
<path d="M0 0 C0 0.66 0 1.32 0 2 C0.66 2.66 1.32 3.32 2 4 C1.7578125 6.3828125 1.7578125 6.3828125 1.125 9.125 C0.92132813 10.03507812 0.71765625 10.94515625 0.5078125 11.8828125 C0.34023437 12.58148438 0.17265625 13.28015625 0 14 C2.475 14.99 2.475 14.99 5 16 C2.13822943 17.43088528 0.06624227 16.59991697 -3 16 C-3 15.34 -3 14.68 -3 14 C-3.66 13.67 -4.32 13.34 -5 13 C-5.46882399 4.87371744 -5.46882399 4.87371744 -3.625 1.4375 C-2 0 -2 0 0 0 Z " fill="#F2DB68" transform="translate(91,95)"/>
<path d="M0 0 C1.33454536 2.1980747 2.02787435 3.52613603 1.875 6.125 C0.73160273 8.575137 -0.53117594 9.04432617 -3 10 C-3 10.66 -3 11.32 -3 12 C-5.97 11.505 -5.97 11.505 -9 11 C-9.33 9.68 -9.66 8.36 -10 7 C-8.824375 6.87625 -8.824375 6.87625 -7.625 6.75 C-4.86943709 6.29090262 -4.86943709 6.29090262 -3.875 4.0625 C-3.58625 3.381875 -3.2975 2.70125 -3 2 C-2.01 1.34 -1.02 0.68 0 0 Z " fill="#957D7A" transform="translate(85,18)"/>
<path d="M0 0 C5.75 2.625 5.75 2.625 8 6 C7.01 6 6.02 6 5 6 C5.66 8.31 6.32 10.62 7 13 C4.50638429 11.79618552 2.31856917 10.54571278 0 9 C0 8.34 0 7.68 0 7 C-0.66 7 -1.32 7 -2 7 C-2.33 8.98 -2.66 10.96 -3 13 C-3.99 13 -4.98 13 -6 13 C-5.34 10.36 -4.68 7.72 -4 5 C-2.68 5 -1.36 5 0 5 C0 3.35 0 1.7 0 0 Z " fill="#705C53" transform="translate(57,11)"/>
<path d="M0 0 C0.66 0 1.32 0 2 0 C2.09688221 5.44693314 2.12862175 10.63904667 1 16 C0.34 16 -0.32 16 -1 16 C-1 16.99 -1 17.98 -1 19 C-1.66 19.33 -2.32 19.66 -3 20 C-4.13350534 22.01669827 -4.13350534 22.01669827 -5 24 C-5.66 22.68 -6.32 21.36 -7 20 C-5.35 19.34 -3.7 18.68 -2 18 C-2 12.72 -2 7.44 -2 2 C-1.34 2 -0.68 2 0 2 C0 1.34 0 0.68 0 0 Z " fill="#F3D96E" transform="translate(139,80)"/>
<path d="M0 0 C0.33 0 0.66 0 1 0 C1.08226668 3.04386724 0.97608217 5.07175348 0 8 C-0.03874921 9.66621616 -0.0450286 11.33394172 0 13 C1.65 12.01 3.3 11.02 5 10 C5.33 11.98 5.66 13.96 6 16 C5.030625 16.12375 4.06125 16.2475 3.0625 16.375 C2.051875 16.58125 1.04125 16.7875 0 17 C-0.33 17.66 -0.66 18.32 -1 19 C-1.66 18.67 -2.32 18.34 -3 18 C-3.44921875 14.91015625 -3.44921875 14.91015625 -3.6875 11.0625 C-3.77386719 9.79535156 -3.86023437 8.52820312 -3.94921875 7.22265625 C-4 4 -4 4 -3 2 C-2.34 2 -1.68 2 -1 2 C-0.67 1.34 -0.34 0.68 0 0 Z " fill="#46575D" transform="translate(57,35)"/>
<path d="M0 0 C2.31 0 4.62 0 7 0 C6.67 0.66 6.34 1.32 6 2 C8.97 2.33 11.94 2.66 15 3 C15 2.34 15 1.68 15 1 C17.53552912 2.26776456 17.84919575 3.46823065 19 6 C19.33 6.66 19.66 7.32 20 8 C18.02 8.33 16.04 8.66 14 9 C14 7.68 14 6.36 14 5 C11.03 5 8.06 5 5 5 C4.67 6.65 4.34 8.3 4 10 C3.34 9.67 2.68 9.34 2 9 C2.185625 8.236875 2.37125 7.47375 2.5625 6.6875 C3.22819173 3.91032625 3.22819173 3.91032625 2 1 C1.34 0.67 0.68 0.34 0 0 Z " fill="#805752" transform="translate(67,27)"/>
<path d="M0 0 C0.99 0.66 1.98 1.32 3 2 C0.48169253 5.12270126 -0.7261549 5.94523098 -4.75 6.75 C-6.35875 6.87375 -6.35875 6.87375 -8 7 C-7.62875 7.5775 -7.2575 8.155 -6.875 8.75 C-6 11 -6 11 -6.875 13.25 C-7.24625 13.8275 -7.6175 14.405 -8 15 C-8.66 15 -9.32 15 -10 15 C-9.67 13.35 -9.34 11.7 -9 10 C-9.66 9.67 -10.32 9.34 -11 9 C-11 9.99 -11 10.98 -11 12 C-12.98 12.99 -12.98 12.99 -15 14 C-13.60555541 8.73209822 -10.26469874 6.0727022 -6 3 C-2.5625 1.125 -2.5625 1.125 0 0 Z " fill="#A5934D" transform="translate(196,91)"/>
<path d="M0 0 C1.65 0.33 3.3 0.66 5 1 C5.33 2.65 5.66 4.3 6 6 C7.98 6 9.96 6 12 6 C10 8 10 8 6.875 8.125 C5.92625 8.08375 4.9775 8.0425 4 8 C4 6.35 4 4.7 4 3 C3.34 3 2.68 3 2 3 C2.33 6.63 2.66 10.26 3 14 C1.02 14 -0.96 14 -3 14 C-3 13.01 -3 12.02 -3 11 C-3.66 10.67 -4.32 10.34 -5 10 C-5 11.98 -5 13.96 -5 16 C-5.33 16 -5.66 16 -6 16 C-6 13.36 -6 10.72 -6 8 C-3.69 8 -1.38 8 1 8 C0.67 5.36 0.34 2.72 0 0 Z " fill="#592D37" transform="translate(101,55)"/>
<path d="M0 0 C0.33 0 0.66 0 1 0 C1.33 9.57 1.66 19.14 2 29 C2.33 29 2.66 29 3 29 C3.33 23.72 3.66 18.44 4 13 C4.33 13 4.66 13 5 13 C5 19.6 5 26.2 5 33 C3.02 33.495 3.02 33.495 1 34 C0 33 0 33 -0.11352539 29.85717773 C-0.11336633 28.46597303 -0.10767506 27.07476239 -0.09765625 25.68359375 C-0.0962413 24.95253922 -0.09482635 24.22148468 -0.09336853 23.46827698 C-0.08775408 21.12464368 -0.07519922 18.78110461 -0.0625 16.4375 C-0.05748686 14.85221492 -0.05292363 13.26692834 -0.04882812 11.68164062 C-0.03777997 7.7877239 -0.02050572 3.89387795 0 0 Z " fill="#F1DF73" transform="translate(9,79)"/>
<path d="M0 0 C2.60512471 5.01685588 5.27240093 10.33047091 4.6875 16.0625 C4.460625 16.701875 4.23375 17.34125 4 18 C2.35 18.33 0.7 18.66 -1 19 C-1.625 16.625 -1.625 16.625 -2 14 C-1.34 13.34 -0.68 12.68 0 12 C-0.2165625 10.9171875 -0.2165625 10.9171875 -0.4375 9.8125 C-1.13486267 6.32568664 -0.61374485 3.47788749 0 0 Z " fill="#B4AB59" transform="translate(200,96)"/>
<path d="M0 0 C2.64 0.33 5.28 0.66 8 1 C8 2.65 8 4.3 8 6 C6.02 6.33 4.04 6.66 2 7 C2 7.99 2 8.98 2 10 C3.65 10 5.3 10 7 10 C7 10.33 7 10.66 7 11 C4.69 11.33 2.38 11.66 0 12 C0 8.04 0 4.08 0 0 Z " fill="#ACA470" transform="translate(92,24)"/>
<path d="M0 0 C1.66611905 -0.042721 3.33382885 -0.04063832 5 0 C6.66342837 1.66342837 6.36048097 3.7825709 6.5625 6.0625 C6.64628906 6.98160156 6.73007813 7.90070313 6.81640625 8.84765625 C6.87699219 9.55792969 6.93757812 10.26820312 7 11 C6.67 10.34 6.34 9.68 6 9 C5.34 9 4.68 9 4 9 C4 7.02 4 5.04 4 3 C3.34 3 2.68 3 2 3 C2 3.66 2 4.32 2 5 C1.34 5 0.68 5 0 5 C0 10.28 0 15.56 0 21 C-1.32 21.33 -2.64 21.66 -4 22 C-3.67 21.34 -3.34 20.68 -3 20 C-2.34 20 -1.68 20 -1 20 C-1.01160156 18.72382812 -1.02320313 17.44765625 -1.03515625 16.1328125 C-1.04453417 14.46354313 -1.05363437 12.79427217 -1.0625 11.125 C-1.07087891 10.28324219 -1.07925781 9.44148438 -1.08789062 8.57421875 C-1.09111328 7.76855469 -1.09433594 6.96289062 -1.09765625 6.1328125 C-1.10289307 5.38918457 -1.10812988 4.64555664 -1.11352539 3.87939453 C-1 2 -1 2 0 0 Z " fill="#817B3E" transform="translate(137,77)"/>
<path d="M0 0 C0.66 0.33 1.32 0.66 2 1 C2.33 1.99 2.66 2.98 3 4 C3.66 4.33 4.32 4.66 5 5 C4.34 6.65 3.68 8.3 3 10 C1.35 10 -0.3 10 -2 10 C-2 9.34 -2 8.68 -2 8 C-2.66 8 -3.32 8 -4 8 C-4.33 6.68 -4.66 5.36 -5 4 C-3.35 2.68 -1.7 1.36 0 0 Z M1 7 C0.67 7.66 0.34 8.32 0 9 C0.99 8.67 1.98 8.34 3 8 C2.34 7.67 1.68 7.34 1 7 Z " fill="#AB9850" transform="translate(131,99)"/>
<path d="M0 0 C2.8125 -0.3125 2.8125 -0.3125 6 0 C8.27338765 2.6522856 8.95526736 4.32901036 9.1875 7.8125 C9.125625 8.534375 9.06375 9.25625 9 10 C5.09061496 8.69687165 2.58220925 7.25167091 0 4 C0 2.68 0 1.36 0 0 Z " fill="#B2BC9C" transform="translate(48,6)"/>
<path d="M0 0 C0.33 0 0.66 0 1 0 C2.0176403 5.01608525 2.11856434 9.78608306 2.0625 14.875 C2.05798828 15.65875 2.05347656 16.4425 2.04882812 17.25 C2.03714093 19.16670014 2.01920908 21.08336048 2 23 C1.34 23 0.68 23 0 23 C-0.93290869 20.20127394 -1.12859447 18.48011055 -1.1328125 15.5859375 C-1.13410156 14.74289063 -1.13539062 13.89984375 -1.13671875 13.03125 C-1.13285156 12.1546875 -1.12898438 11.278125 -1.125 10.375 C-1.12886719 9.49070312 -1.13273437 8.60640625 -1.13671875 7.6953125 C-1.13542969 6.85484375 -1.13414063 6.014375 -1.1328125 5.1484375 C-1.13168457 4.37677246 -1.13055664 3.60510742 -1.12939453 2.81005859 C-1 1 -1 1 0 0 Z " fill="#F2D962" transform="translate(29,73)"/>
<path d="M0 0 C1.32 0.33 2.64 0.66 4 1 C3.67 3.31 3.34 5.62 3 8 C-1.62 7.01 -6.24 6.02 -11 5 C-10.34 3.68 -9.68 2.36 -9 1 C-6.69 1.33 -4.38 1.66 -2 2 C-1.67 2.99 -1.34 3.98 -1 5 C-0.67 3.35 -0.34 1.7 0 0 Z " fill="#275164" transform="translate(50,34)"/>
<path d="M0 0 C0.33 0.66 0.66 1.32 1 2 C1.66 2 2.32 2 3 2 C3 2.66 3 3.32 3 4 C5.43717258 3.72965366 5.43717258 3.72965366 8 3 C8.66 2.01 9.32 1.02 10 0 C10.66 0.33 11.32 0.66 12 1 C10.68 3.31 9.36 5.62 8 8 C5.03 8 2.06 8 -1 8 C-1.125 2.25 -1.125 2.25 0 0 Z " fill="#EDDD74" transform="translate(126,105)"/>
<path d="M0 0 C0.33 0.66 0.66 1.32 1 2 C0.67 2.66 0.34 3.32 0 4 C0.99 3.67 1.98 3.34 3 3 C3.33 2.34 3.66 1.68 4 1 C4.99 1.66 5.98 2.32 7 3 C7.29296875 5.3828125 7.29296875 5.3828125 7.1875 8.125 C7.16042969 9.03507812 7.13335937 9.94515625 7.10546875 10.8828125 C7.07066406 11.58148438 7.03585938 12.28015625 7 13 C5.35 13 3.7 13 2 13 C2.33 11.02 2.66 9.04 3 7 C1.68 7 0.36 7 -1 7 C-1.04254356 5.00045254 -1.04080783 2.99958364 -1 1 C-0.67 0.67 -0.34 0.34 0 0 Z " fill="#677C79" transform="translate(53,54)"/>
<path d="M0 0 C1.670625 0.061875 1.670625 0.061875 3.375 0.125 C3.705 1.445 4.035 2.765 4.375 4.125 C3.42625 4.393125 2.4775 4.66125 1.5 4.9375 C-1.87767273 5.87486588 -1.87767273 5.87486588 -3.625 9.125 C-5.1875 7.875 -5.1875 7.875 -6.625 6.125 C-6.20893707 1.54830781 -4.61554728 0.1591568 0 0 Z " fill="#EED86E" transform="translate(158.625,93.875)"/>
<path d="M0 0 C2.64 0.33 5.28 0.66 8 1 C7.67 3.31 7.34 5.62 7 8 C5.906875 7.79375 4.81375 7.5875 3.6875 7.375 C-0.0838401 6.59653475 -0.0838401 6.59653475 -3 9 C-2.01 6.03 -1.02 3.06 0 0 Z " fill="#2D5F77" transform="translate(42,21)"/>
<path d="M0 0 C1.43088528 2.86177057 0.59991697 4.93375773 0 8 C4.455 7.505 4.455 7.505 9 7 C9.33 6.01 9.66 5.02 10 4 C12.64 3.67 15.28 3.34 18 3 C17.67 3.99 17.34 4.98 17 6 C15.35 6 13.7 6 12 6 C12 6.66 12 7.32 12 8 C7.84782943 9.58177926 4.45263035 10.40478458 0 10 C-0.66 9.34 -1.32 8.68 -2 8 C-1.42307692 1.42307692 -1.42307692 1.42307692 0 0 Z " fill="#877E3F" transform="translate(125,105)"/>
<path d="M0 0 C0.99 0.33 1.98 0.66 3 1 C2.67 4.3 2.34 7.6 2 11 C1.34 11 0.68 11 0 11 C-0.33 11.99 -0.66 12.98 -1 14 C-2.65 13.67 -4.3 13.34 -6 13 C-5.34 12.34 -4.68 11.68 -4 11 C-4.99 10.67 -5.98 10.34 -7 10 C-6.67 9.01 -6.34 8.02 -6 7 C-3.69 7 -1.38 7 1 7 C0.67 4.69 0.34 2.38 0 0 Z " fill="#4A7D8D" transform="translate(57,24)"/>
<path d="M0 0 C2.93453261 0.36681658 3.86437246 0.86437246 6 3 C6 3.99 6 4.98 6 6 C5.34 6 4.68 6 4 6 C4 5.01 4 4.02 4 3 C3.01 3 2.02 3 1 3 C1.09539062 3.68707031 1.19078125 4.37414062 1.2890625 5.08203125 C1.39992188 5.98308594 1.51078125 6.88414063 1.625 7.8125 C1.74101563 8.70582031 1.85703125 9.59914063 1.9765625 10.51953125 C2 13 2 13 0 16 C-1.3157048 11.23057011 -2.47543452 6.99206251 -2 2 C-1.34 1.34 -0.68 0.68 0 0 Z " fill="#8B8342" transform="translate(106,95)"/>
<path d="M0 0 C1.1446875 0.3403125 1.1446875 0.3403125 2.3125 0.6875 C2.3125 2.0075 2.3125 3.3275 2.3125 4.6875 C1.3225 4.6875 0.3325 4.6875 -0.6875 4.6875 C-0.6875 6.9975 -0.6875 9.3075 -0.6875 11.6875 C-2.6875 10.6875 -2.6875 10.6875 -4.6875 7.6875 C-5.5 5.1875 -5.5 5.1875 -5.6875 2.6875 C-4.0011022 -0.12316299 -3.27764429 -0.38112143 0 0 Z " fill="#BD854A" transform="translate(78.6875,31.3125)"/>
<path d="M0 0 C1.32 0.66 2.64 1.32 4 2 C4 2.66 4 3.32 4 4 C4.66 4 5.32 4 6 4 C5.67 4.66 5.34 5.32 5 6 C-0.28 6 -5.56 6 -11 6 C-11.33 5.34 -11.66 4.68 -12 4 C-10.95199219 3.81824219 -10.95199219 3.81824219 -9.8828125 3.6328125 C-8.51769531 3.38144531 -8.51769531 3.38144531 -7.125 3.125 C-5.76761719 2.88136719 -5.76761719 2.88136719 -4.3828125 2.6328125 C-1.83494012 2.16955297 -1.83494012 2.16955297 0 0 Z " fill="#565757" transform="translate(95,49)"/>
<path d="M0 0 C3.11373372 1.49920512 6.12228205 3.08152136 9 5 C9 5.66 9 6.32 9 7 C7.02 6.34 5.04 5.68 3 5 C3.33 6.98 3.66 8.96 4 11 C0.18315774 9.44499019 -2.19195732 6.96404505 -5 4 C-2.69 4 -0.38 4 2 4 C1.34 2.68 0.68 1.36 0 0 Z " fill="#7B5A4D" transform="translate(88,36)"/>
<path d="M0 0 C0.33 0 0.66 0 1 0 C1 4.29 1 8.58 1 13 C2.65 13 4.3 13 6 13 C5.74438677 15.3431213 5.40729228 17.67843403 5 20 C4.34 20.33 3.68 20.66 3 21 C2.957279 19.33388095 2.95936168 17.66617115 3 16 C3.33 15.67 3.66 15.34 4 15 C3.4225 15.309375 2.845 15.61875 2.25 15.9375 C0.15705816 16.92583364 -1.74535275 17.5168613 -4 18 C-4.33 17.34 -4.66 16.68 -5 16 C-4.01 16 -3.02 16 -2 16 C-0.56321166 13.12642332 -0.94386536 10.63366579 -1 7.4375 C-1.03759919 5.2919961 -1.04670095 3.14532508 -1 1 C-0.67 0.67 -0.34 0.34 0 0 Z " fill="#8C823C" transform="translate(75,106)"/>
<path d="M0 0 C1.32 0.33 2.64 0.66 4 1 C3.01 1.33 2.02 1.66 1 2 C1.2475 3.0725 1.495 4.145 1.75 5.25 C2 9 2 9 0.0625 11.4375 C-0.618125 11.953125 -1.29875 12.46875 -2 13 C-2.33 11.35 -2.66 9.7 -3 8 C-4.98 8.99 -4.98 8.99 -7 10 C-6.25 8.0625 -6.25 8.0625 -5 6 C-2.875 5.25 -2.875 5.25 -1 5 C-0.67 3.35 -0.34 1.7 0 0 Z " fill="#949899" transform="translate(72,32)"/>
<path d="M0 0 C2 2 2 2 2.23046875 3.91796875 C2.13989209 8.70206339 1.80325651 13.28086801 1 18 C0.34 18 -0.32 18 -1 18 C-1.02684312 15.18743719 -1.04676188 12.37512759 -1.0625 9.5625 C-1.07087891 8.76005859 -1.07925781 7.95761719 -1.08789062 7.13085938 C-1.0965143 5.08704779 -1.0522815 3.04316098 -1 1 C-0.67 0.67 -0.34 0.34 0 0 Z " fill="#F5DB58" transform="translate(173,78)"/>
<path d="M0 0 C0.33 0 0.66 0 1 0 C1.33 1.98 1.66 3.96 2 6 C2.66 5.67 3.32 5.34 4 5 C4.25 7.8125 4.25 7.8125 4 11 C2.3125 12.9375 2.3125 12.9375 0 14 C-2.75 13.6875 -2.75 13.6875 -5 13 C-5.33 11.02 -5.66 9.04 -6 7 C-4 10 -4 10 -4 12 C-2.68 12 -1.36 12 0 12 C0 8.04 0 4.08 0 0 Z " fill="#5A5429" transform="translate(177,101)"/>
<path d="M0 0 C3.59746985 3.59746985 5.57819966 8.93839588 6 14 C5.01 15.485 5.01 15.485 4 17 C2.68 16.67 1.36 16.34 0 16 C0 15.01 0 14.02 0 13 C1.32 13.66 2.64 14.32 4 15 C3.22969878 11.51190809 3.22969878 11.51190809 2 8 C1.01 7.67 0.02 7.34 -1 7 C-0.67 4.69 -0.34 2.38 0 0 Z " fill="#827841" transform="translate(143,98)"/>
<path d="M0 0 C0.33 0 0.66 0 1 0 C2.38529821 5.45461169 3.2396943 10.36718401 3 16 C1.68 16.33 0.36 16.66 -1 17 C-0.34 16.67 0.32 16.34 1 16 C0.195625 15.87625 -0.60875 15.7525 -1.4375 15.625 C-2.283125 15.41875 -3.12875 15.2125 -4 15 C-4.33 14.34 -4.66 13.68 -5 13 C-3.02 13 -1.04 13 1 13 C0.67 11.68 0.34 10.36 0 9 C-1.98 9 -3.96 9 -6 9 C-5.34 8.34 -4.68 7.68 -4 7 C-2.68 7 -1.36 7 0 7 C0 4.69 0 2.38 0 0 Z " fill="#585131" transform="translate(108,17)"/>
<path d="M0 0 C1.98 0 3.96 0 6 0 C6.22245393 1.60226955 6.42746669 3.20696767 6.625 4.8125 C6.74101563 5.70582031 6.85703125 6.59914063 6.9765625 7.51953125 C7 10 7 10 5 13 C4.67 12.01 4.34 11.02 4 10 C3.34 9.34 2.68 8.68 2 8 C2.66 8 3.32 8 4 8 C4 7.01 4 6.02 4 5 C3.34 5 2.68 5 2 5 C2 3.68 2 2.36 2 1 C1.34 0.67 0.68 0.34 0 0 Z " fill="#E7D16A" transform="translate(50,93)"/>
<path d="M0 0 C0.33 0 0.66 0 1 0 C1 1.65 1 3.3 1 5 C2.32 5 3.64 5 5 5 C5 4.34 5 3.68 5 3 C5.99 3.33 6.98 3.66 8 4 C7.34 4 6.68 4 6 4 C6.33 5.98 6.66 7.96 7 10 C4.69 10 2.38 10 0 10 C0 6.7 0 3.4 0 0 Z " fill="#6E6B33" transform="translate(100,13)"/>
<path d="M0 0 C0.66 0 1.32 0 2 0 C2.66 2.64 3.32 5.28 4 8 C4.66 7.34 5.32 6.68 6 6 C6 7.98 6 9.96 6 12 C4.02 12 2.04 12 0 12 C0 8.04 0 4.08 0 0 Z " fill="#F5DB62" transform="translate(107,98)"/>
<path d="M0 0 C0.66 0 1.32 0 2 0 C2 2.31 2 4.62 2 7 C1.01 7.495 1.01 7.495 0 8 C0.33 9.32 0.66 10.64 1 12 C-0.98 12 -2.96 12 -5 12 C-5 10.02 -5 8.04 -5 6 C-3.02 6 -1.04 6 1 6 C0.67 4.02 0.34 2.04 0 0 Z " fill="#9B945C" transform="translate(106,17)"/>
<path d="M0 0 C0.99 0 1.98 0 3 0 C3 0.66 3 1.32 3 2 C4.32 2.66 5.64 3.32 7 4 C7 5.65 7 7.3 7 9 C4.08482708 7.92598892 2.22189824 7.22189824 0 5 C-0.125 2.375 -0.125 2.375 0 0 Z " fill="#CFD28E" transform="translate(62,17)"/>
<path d="M0 0 C0.33 0 0.66 0 1 0 C1 5.28 1 10.56 1 16 C0.01 15.67 -0.98 15.34 -2 15 C-2.33 15.66 -2.66 16.32 -3 17 C-3.99 16.67 -4.98 16.34 -6 16 C-5.34 15.67 -4.68 15.34 -4 15 C-4 12.03 -4 9.06 -4 6 C-3.67 6 -3.34 6 -3 6 C-3 7.98 -3 9.96 -3 12 C-2.34 12 -1.68 12 -1 12 C-0.67 8.04 -0.34 4.08 0 0 Z " fill="#CBB957" transform="translate(32,87)"/>
<path d="M0 0 C3.01326538 0.32284986 4.03461538 1.03365384 6.25 3.1875 C8.27011863 6.43411922 8.34907695 8.24742282 8 12 C7.67 12 7.34 12 7 12 C7 10.35 7 8.7 7 7 C5.68 7.33 4.36 7.66 3 8 C3 7.34 3 6.68 3 6 C2.01 5.34 1.02 4.68 0 4 C0.66 4 1.32 4 2 4 C2 3.34 2 2.68 2 2 C0.02 2.99 0.02 2.99 -2 4 C-1.34 2.68 -0.68 1.36 0 0 Z " fill="#9D8C42" transform="translate(89,93)"/>
<path d="M0 0 C0.66 0.33 1.32 0.66 2 1 C2 2.32 2 3.64 2 5 C0.02 5 -1.96 5 -4 5 C-4 5.66 -4 6.32 -4 7 C-2.02 6.67 -0.04 6.34 2 6 C2 6.66 2 7.32 2 8 C-0.95664519 9.4783226 -3.74229737 9.06032783 -7 9 C-6.67 7.35 -6.34 5.7 -6 4 C-4.02 4 -2.04 4 0 4 C0 2.68 0 1.36 0 0 Z " fill="#AAA56C" transform="translate(107,25)"/>
<path d="M0 0 C0.99 0 1.98 0 3 0 C3 2.31 3 4.62 3 7 C0.36 7 -2.28 7 -5 7 C-5 5.68 -5 4.36 -5 3 C-4.360625 2.690625 -3.72125 2.38125 -3.0625 2.0625 C-1.06389179 1.1654837 -1.06389179 1.1654837 0 0 Z " fill="#717367" transform="translate(64,65)"/>
<path d="M0 0 C2.85098258 4.27647387 3.14480591 7.9317932 3 13 C2.34 13 1.68 13 1 13 C0 10 0 10 1 7 C0.01 7 -0.98 7 -2 7 C-2 5.02 -2 3.04 -2 1 C-1.34 0.67 -0.68 0.34 0 0 Z " fill="#F0D867" transform="translate(24,98)"/>
<path d="M0 0 C0.66 0.33 1.32 0.66 2 1 C1.67 3.31 1.34 5.62 1 8 C0.01 8.33 -0.98 8.66 -2 9 C-2.33 9.66 -2.66 10.32 -3 11 C-4 10 -4 10 -4.0625 7.4375 C-4.041875 6.633125 -4.02125 5.82875 -4 5 C-3.34 5 -2.68 5 -2 5 C-1.7834375 4.0409375 -1.7834375 4.0409375 -1.5625 3.0625 C-1 1 -1 1 0 0 Z " fill="#EDD86E" transform="translate(67,96)"/>
<path d="M0 0 C0.99 0.66 1.98 1.32 3 2 C2.67 3.65 2.34 5.3 2 7 C-0.31 7 -2.62 7 -5 7 C-4.60196439 4.11424181 -4.20990931 3.17810487 -1.9375 1.25 C-1.298125 0.8375 -0.65875 0.425 0 0 Z " fill="#DBD99E" transform="translate(68,39)"/>
<path d="M0 0 C0.33 0 0.66 0 1 0 C1 1.65 1 3.3 1 5 C3.31 5.33 5.62 5.66 8 6 C8.125 12.625 8.125 12.625 7 16 C6.34 15.67 5.68 15.34 5 15 C5.33 14.34 5.66 13.68 6 13 C4.68 12.67 3.36 12.34 2 12 C3.32 12 4.64 12 6 12 C6.33 10.35 6.66 8.7 7 7 C4.69 6.67 2.38 6.34 0 6 C-0.33 6.99 -0.66 7.98 -1 9 C-0.67 6.03 -0.34 3.06 0 0 Z " fill="#66A9C2" transform="translate(42,23)"/>
<path d="M0 0 C3.875 0.875 3.875 0.875 5 2 C5.04080783 3.99958364 5.04254356 6.00045254 5 8 C4.01 8.33 3.02 8.66 2 9 C0.14223235 5.86501708 -0.20140476 3.62528568 0 0 Z " fill="#D3CE9F" transform="translate(91,41)"/>
<path d="M0 0 C0.33 0.66 0.66 1.32 1 2 C4.96 2 8.92 2 13 2 C12.67 3.32 12.34 4.64 12 6 C11.01 6.495 11.01 6.495 10 7 C9.67 6.505 9.34 6.01 9 5.5 C5.82427253 3.11820439 2.89753934 3.80831774 -1 4 C-1.33 3.01 -1.66 2.02 -2 1 C-1.34 0.67 -0.68 0.34 0 0 Z " fill="#2C373E" transform="translate(79,5)"/>
<path d="M0 0 C0 0.66 0 1.32 0 2 C-0.66 2 -1.32 2 -2 2 C-2 3.65 -2 5.3 -2 7 C-4.31 7 -6.62 7 -9 7 C-7.51191431 2.53574293 -4.79253508 0 0 0 Z " fill="#EDDA65" transform="translate(80,120)"/>
<path d="M0 0 C0 0.99 0 1.98 0 3 C-6.28571429 9 -6.28571429 9 -10 9 C-11.75 7.5625 -11.75 7.5625 -13 6 C-10.36 5.67 -7.72 5.34 -5 5 C-5 4.01 -5 3.02 -5 2 C-3.35 1.34 -1.7 0.68 0 0 Z " fill="#7A6E3E" transform="translate(194,107)"/>
<path d="M0 0 C1.9375 0.875 1.9375 0.875 3.9375 3.875 C4.1328125 6.79296875 4.1328125 6.79296875 4.0625 10.0625 C4.04445313 11.14917969 4.02640625 12.23585938 4.0078125 13.35546875 C3.97300781 14.60263672 3.97300781 14.60263672 3.9375 15.875 C3.6075 15.875 3.2775 15.875 2.9375 15.875 C2.88851562 15.26011719 2.83953125 14.64523438 2.7890625 14.01171875 C2.71429688 13.20347656 2.63953125 12.39523438 2.5625 11.5625 C2.49289063 10.76199219 2.42328125 9.96148437 2.3515625 9.13671875 C2.04185574 6.60275559 2.04185574 6.60275559 -0.0625 3.875 C-2.62532742 3.14534634 -2.62532742 3.14534634 -5.0625 2.875 C-2.63475434 -0.15968208 -2.63475434 -0.15968208 0 0 Z " fill="#DBCA6F" transform="translate(97.0625,92.125)"/>
<path d="M0 0 C0 1.98 0 3.96 0 6 C-2.31 6 -4.62 6 -7 6 C-7 4.35 -7 2.7 -7 1 C-2.25 0 -2.25 0 0 0 Z " fill="#808272" transform="translate(66,75)"/>
<path d="M0 0 C1.65 0 3.3 0 5 0 C4.67 1.65 4.34 3.3 4 5 C2.35 5.33 0.7 5.66 -1 6 C-1 2 -1 2 0 0 Z " fill="#E1D7AC" transform="translate(89,12)"/>
<path d="M0 0 C0.99 0.33 1.98 0.66 3 1 C1.95902388 4.86648272 0.96301592 8.49461443 -1 12 C-1.66 12 -2.32 12 -3 12 C-3.1875 9.125 -3.1875 9.125 -3 6 C-2.01 5.34 -1.02 4.68 0 4 C0 2.68 0 1.36 0 0 Z " fill="#F3D863" transform="translate(42,99)"/>
<path d="M0 0 C0.8353125 0.556875 0.8353125 0.556875 1.6875 1.125 C1.6875 2.445 1.6875 3.765 1.6875 5.125 C0.6975 5.455 -0.2925 5.785 -1.3125 6.125 C-1.3125 5.465 -1.3125 4.805 -1.3125 4.125 C-0.6525 4.125 0.0075 4.125 0.6875 4.125 C0.6875 3.465 0.6875 2.805 0.6875 2.125 C-0.22 2.434375 -1.1275 2.74375 -2.0625 3.0625 C-4.47813338 3.8522263 -6.84030285 4.55449297 -9.3125 5.125 C-8.27806141 2.30380386 -7.58029294 1.28003802 -4.9375 -0.25 C-2.3125 -0.875 -2.3125 -0.875 0 0 Z " fill="#8E874B" transform="translate(122.3125,91.875)"/>
<path d="M0 0 C0.33 0 0.66 0 1 0 C0.7242265 6.2049038 -0.10640794 10.10160999 -4 15 C-4.99 14.67 -5.98 14.34 -7 14 C-6.01 13.01 -5.02 12.02 -4 11 C-4.66 10.67 -5.32 10.34 -6 10 C-4.68 9.67 -3.36 9.34 -2 9 C-1.34 6.03 -0.68 3.06 0 0 Z " fill="#8C8446" transform="translate(167,99)"/>
<path d="M0 0 C0.33 0 0.66 0 1 0 C1.33 1.98 1.66 3.96 2 6 C0.35 6.33 -1.3 6.66 -3 7 C-3.33 9.31 -3.66 11.62 -4 14 C-4.33 14 -4.66 14 -5 14 C-5.73211081 8.14311354 -3.48028193 4.4958396 0 0 Z " fill="#948C44" transform="translate(41,98)"/>
<path d="M0 0 C2.33944736 0.28730055 4.6739143 0.61936779 7 1 C7 3.31 7 5.62 7 8 C6.01 8 5.02 8 4 8 C4 6.35 4 4.7 4 3 C3.01 3.33 2.02 3.66 1 4 C1 3.34 1 2.68 1 2 C0.34 1.67 -0.32 1.34 -1 1 C-0.67 0.67 -0.34 0.34 0 0 Z " fill="#F1DA69" transform="translate(188,97)"/>
<path d="M0 0 C0.33 0.66 0.66 1.32 1 2 C3.52733235 2.65555119 3.52733235 2.65555119 6 3 C4.625 5.5 4.625 5.5 3 8 C2.34 8 1.68 8 1 8 C0.67 8.66 0.34 9.32 0 10 C-0.19412181 8.52168779 -0.38012131 7.04230684 -0.5625 5.5625 C-0.66691406 4.73878906 -0.77132812 3.91507813 -0.87890625 3.06640625 C-0.91886719 2.38449219 -0.95882812 1.70257813 -1 1 C-0.67 0.67 -0.34 0.34 0 0 Z " fill="#819692" transform="translate(63,43)"/>
<path d="M0 0 C0.99 0.33 1.98 0.66 3 1 C3.33 3.31 3.66 5.62 4 8 C1.5625 7.25 1.5625 7.25 -1 6 C-1.8125 3.875 -1.8125 3.875 -2 2 C-1.34 2 -0.68 2 0 2 C0 1.34 0 0.68 0 0 Z " fill="#EEDB6F" transform="translate(143,105)"/>
<path d="M0 0 C1.98 0 3.96 0 6 0 C6 0.99 6 1.98 6 3 C6.66 3 7.32 3 8 3 C8.33 5.97 8.66 8.94 9 12 C8.34 12 7.68 12 7 12 C7 9.36 7 6.72 7 4 C4.69 3.67 2.38 3.34 0 3 C0 2.01 0 1.02 0 0 Z " fill="#5E5E42" transform="translate(94,31)"/>
<path d="M0 0 C-0.33 0.99 -0.66 1.98 -1 3 C-1.66 3 -2.32 3 -3 3 C-3 3.66 -3 4.32 -3 5 C-6.375 4.6875 -6.375 4.6875 -10 4 C-10.66 3.01 -11.32 2.02 -12 1 C-11.278125 1.20625 -10.55625 1.4125 -9.8125 1.625 C-5.95264605 2.13964719 -3.67906044 0 0 0 Z " fill="#B3A95B" transform="translate(163,110)"/>
<path d="M0 0 C1.67542976 0.28604898 3.34385343 0.61781233 5 1 C4.67 2.65 4.34 4.3 4 6 C2.68 5.67 1.36 5.34 0 5 C-0.5625 3.0625 -0.5625 3.0625 -1 1 C-0.67 0.67 -0.34 0.34 0 0 Z " fill="#AEA55C" transform="translate(108,109)"/>
<path d="M0 0 C1.2065625 0.0309375 1.2065625 0.0309375 2.4375 0.0625 C3.4375 3.0625 3.4375 3.0625 2.5 5.25 C1.9740625 6.1471875 1.9740625 6.1471875 1.4375 7.0625 C0.7775 7.0625 0.1175 7.0625 -0.5625 7.0625 C-0.2325 5.4125 0.0975 3.7625 0.4375 2.0625 C-0.2225 1.7325 -0.8825 1.4025 -1.5625 1.0625 C-1.5625 2.0525 -1.5625 3.0425 -1.5625 4.0625 C-3.5425 5.0525 -3.5425 5.0525 -5.5625 6.0625 C-3.26136364 0.07954545 -3.26136364 0.07954545 0 0 Z " fill="#BFB15B" transform="translate(186.5625,98.9375)"/>
<path d="M0 0 C0.66 0 1.32 0 2 0 C2 0.66 2 1.32 2 2 C2.66 2.66 3.32 3.32 4 4 C3.7578125 5.9453125 3.7578125 5.9453125 3.125 8.125 C2.92132813 8.84945312 2.71765625 9.57390625 2.5078125 10.3203125 C2.34023437 10.87460938 2.17265625 11.42890625 2 12 C1.67 12 1.34 12 1 12 C0.67 10.02 0.34 8.04 0 6 C-0.99 6 -1.98 6 -3 6 C-1.125 1.125 -1.125 1.125 0 0 Z " fill="#E1CF6A" transform="translate(89,95)"/>
<path d="M0 0 C0 0.66 0 1.32 0 2 C-0.66 2 -1.32 2 -2 2 C-2 2.66 -2 3.32 -2 4 C-4.31 4.66 -6.62 5.32 -9 6 C-9.33 5.01 -9.66 4.02 -10 3 C-6.48812804 0.59185923 -4.27343092 -0.36629408 0 0 Z " fill="#EAD769" transform="translate(123,94)"/>
<path d="M0 0 C0.268125 0.598125 0.53625 1.19625 0.8125 1.8125 C1.98493467 3.97224808 3.19369282 5.35790256 5 7 C4.67 7.66 4.34 8.32 4 9 C5.98 9 7.96 9 10 9 C9.34 9.66 8.68 10.32 8 11 C4.93565274 10.84285399 3.44730969 10.41646074 1.1875 8.3125 C-0.3082321 5.39975854 -0.22022756 3.23000416 0 0 Z " fill="#908549" transform="translate(62,102)"/>
<path d="M0 0 C1.70884005 1.62339805 3.37446717 3.29319053 5 5 C5 5.66 5 6.32 5 7 C6.32 6.34 7.64 5.68 9 5 C8.67 5.99 8.34 6.98 8 8 C5.9375 8.6875 5.9375 8.6875 4 9 C4 8.01 4 7.02 4 6 C2.68 6 1.36 6 0 6 C0 4.02 0 2.04 0 0 Z " fill="#BCA947" transform="translate(152,100)"/>
<path d="M0 0 C0.66 0 1.32 0 2 0 C2.33 1.98 2.66 3.96 3 6 C2.34 6 1.68 6 1 6 C1.33 6.66 1.66 7.32 2 8 C0.68 8.33 -0.64 8.66 -2 9 C-2 6.69 -2 4.38 -2 2 C-1.34 2 -0.68 2 0 2 C0 1.34 0 0.68 0 0 Z " fill="#F9DF62" transform="translate(14,81)"/>
<path d="M0 0 C2.31 0 4.62 0 7 0 C7 1.32 7 2.64 7 4 C4.69 4 2.38 4 0 4 C0 2.68 0 1.36 0 0 Z " fill="#706F61" transform="translate(50,68)"/>
<path d="M0 0 C0 1.65 0 3.3 0 5 C-2.31 5 -4.62 5 -7 5 C-7 3.68 -7 2.36 -7 1 C-4 0 -4 0 0 0 Z " fill="#675B27" transform="translate(100,25)"/>
<path d="M0 0 C0.33 0.66 0.66 1.32 1 2 C1.66 2 2.32 2 3 2 C3 2.66 3 3.32 3 4 C4.65 4.33 6.3 4.66 8 5 C7.67 5.66 7.34 6.32 7 7 C4.69 7 2.38 7 0 7 C0 4.69 0 2.38 0 0 Z " fill="#F1D95F" transform="translate(126,105)"/>
<path d="M0 0 C0.99 0.33 1.98 0.66 3 1 C3 1.99 3 2.98 3 4 C3.66 3.67 4.32 3.34 5 3 C4.67 3.99 4.34 4.98 4 6 C2.35 6 0.7 6 -1 6 C-1 5.34 -1 4.68 -1 4 C-1.66 4 -2.32 4 -3 4 C-2.67 3.01 -2.34 2.02 -2 1 C-1.34 0.67 -0.68 0.34 0 0 Z " fill="#CEBD53" transform="translate(130,103)"/>
<path d="M0 0 C0.66 0 1.32 0 2 0 C2 3.3 2 6.6 2 10 C0.02 10 -1.96 10 -4 10 C-4 9.67 -4 9.34 -4 9 C-2.35 9 -0.7 9 1 9 C0.34 8.01 -0.32 7.02 -1 6 C-0.625 2.8125 -0.625 2.8125 0 0 Z " fill="#EFD571" transform="translate(31,103)"/>
<path d="M0 0 C0 1.66666667 0 3.33333333 0 5 C0.99 5.66 1.98 6.32 3 7 C2.34 7 1.68 7 1 7 C1 7.66 1 8.32 1 9 C0.01 9.33 -0.98 9.66 -2 10 C-2.33 9.01 -2.66 8.02 -3 7 C-3.66 6.67 -4.32 6.34 -5 6 C-3.35 4.02 -1.7 2.04 0 0 Z " fill="#A27157" transform="translate(88,12)"/>
<path d="M0 0 C1.98 0.495 1.98 0.495 4 1 C4 1.99 4 2.98 4 4 C3.67 4.33 3.34 4.66 3 5 C2.63837971 6.32594105 2.30271961 7.65938457 2 9 C-0.37783838 6.62216162 -0.59009208 5.27926335 -1 2 C-0.67 1.34 -0.34 0.68 0 0 Z " fill="#948E54" transform="translate(63,116)"/>
<path d="M0 0 C0.33 1.32 0.66 2.64 1 4 C-1.64 4.33 -4.28 4.66 -7 5 C-6.6875 3.0625 -6.6875 3.0625 -6 1 C-3 0 -3 0 0 0 Z " fill="#F1DB5B" transform="translate(162,94)"/>
<path d="M0 0 C1.5 1.1875 1.5 1.1875 3 3 C3.1875 5.6875 3.1875 5.6875 3 8 C1.68 8.33 0.36 8.66 -1 9 C-1.33 7.35 -1.66 5.7 -2 4 C-1.01 4.33 -0.02 4.66 1 5 C0.67 3.35 0.34 1.7 0 0 Z " fill="#EFDB6B" transform="translate(19,89)"/>
<path d="M0 0 C2.31 0 4.62 0 7 0 C7 0.99 7 1.98 7 3 C5.35 3.66 3.7 4.32 2 5 C1.34 4.34 0.68 3.68 0 3 C0 2.01 0 1.02 0 0 Z " fill="#6D3A3F" transform="translate(99,76)"/>
<path d="M0 0 C0.33 1.32 0.66 2.64 1 4 C2.65 4.33 4.3 4.66 6 5 C6 5.33 6 5.66 6 6 C2.7 6.33 -0.6 6.66 -4 7 C-2.68 4.69 -1.36 2.38 0 0 Z " fill="#3A3B38" transform="translate(64,51)"/>
<path d="M0 0 C-0.99 0.99 -1.98 1.98 -3 3 C-3 2.34 -3 1.68 -3 1 C-6.96 1 -10.92 1 -15 1 C-15 0.67 -15 0.34 -15 0 C-13.06544546 -0.38991022 -11.12718172 -0.76145349 -9.1875 -1.125 C-8.10855469 -1.33382813 -7.02960938 -1.54265625 -5.91796875 -1.7578125 C-3 -2 -3 -2 0 0 Z " fill="#536264" transform="translate(95,6)"/>
<path d="M0 0 C1.57554035 2.88628401 2.46276373 5.53342384 3.125 8.75 C3.29257813 9.54921875 3.46015625 10.3484375 3.6328125 11.171875 C3.81457031 12.07679687 3.81457031 12.07679687 4 13 C1 12 1 12 -0.25 9.875 C-1.18252152 6.30033417 -0.70486964 3.59483517 0 0 Z " fill="#7D7438" transform="translate(200,96)"/>
<path d="M0 0 C0.99 0 1.98 0 3 0 C3 2.64 3 5.28 3 8 C2.01 8 1.02 8 0 8 C0 5.36 0 2.72 0 0 Z " fill="#F5DC5A" transform="translate(172,99)"/>
<path d="M0 0 C2 3.75 2 3.75 2 6 C0.68 6 -0.64 6 -2 6 C-2.33 6.66 -2.66 7.32 -3 8 C-3.1875 5.125 -3.1875 5.125 -3 2 C-2.01 1.34 -1.02 0.68 0 0 Z " fill="#C6D0CB" transform="translate(85,18)"/>
<path d="M0 0 C1.98 0.99 1.98 0.99 4 2 C3.01 2.33 2.02 2.66 1 3 C1 7.62 1 12.24 1 17 C0.67 17 0.34 17 0 17 C0 11.39 0 5.78 0 0 Z " fill="#45422B" transform="translate(79,37)"/>
<path d="M0 0 C0.99 0.33 1.98 0.66 3 1 C3 2.65 3 4.3 3 6 C1.02 6 -0.96 6 -3 6 C-2.67 5.01 -2.34 4.02 -2 3 C-1.34 3.33 -0.68 3.66 0 4 C0 2.68 0 1.36 0 0 Z " fill="#427082" transform="translate(54,24)"/>
<path d="M0 0 C0.99 0.33 1.98 0.66 3 1 C2.979375 1.78375 2.95875 2.5675 2.9375 3.375 C2.81315937 5.98114961 2.81315937 5.98114961 4 8 C1.00675737 6.9024777 0.15389099 6.32317108 -1.25 3.375 C-1.4975 2.59125 -1.745 1.8075 -2 1 C-1.34 0.67 -0.68 0.34 0 0 Z " fill="#6B8F90" transform="translate(60,16)"/>
<path d="M0 0 C1.67542976 0.28604898 3.34385343 0.61781233 5 1 C5 2.98 5 4.96 5 7 C4.01 7.495 4.01 7.495 3 8 C3 6.35 3 4.7 3 3 C0.83125748 3.50603992 -0.99967627 3.99983813 -3 5 C-1.125 1.125 -1.125 1.125 0 0 Z " fill="#5B524F" transform="translate(98,0)"/>
<path d="M0 0 C2.475 0.99 2.475 0.99 5 2 C5 2.66 5 3.32 5 4 C4.01 4 3.02 4 2 4 C1.67 5.32 1.34 6.64 1 8 C0.34 5.69 -0.32 3.38 -1 1 C-0.67 0.67 -0.34 0.34 0 0 Z " fill="#CBBB5F" transform="translate(65,119)"/>
<path d="M0 0 C0.99 0.33 1.98 0.66 3 1 C3 2.98 3 4.96 3 7 C0.525 6.01 0.525 6.01 -2 5 C-2 4.01 -2 3.02 -2 2 C-1.34 2 -0.68 2 0 2 C0 1.34 0 0.68 0 0 Z " fill="#E6CF5A" transform="translate(76,95)"/>
<path d="M0 0 C2 3 2 3 2 5 C2.66 5.33 3.32 5.66 4 6 C3.01 6 2.02 6 1 6 C1 6.66 1 7.32 1 8 C1.66 8.33 2.32 8.66 3 9 C1.68 9 0.36 9 -1 9 C-0.67 6.03 -0.34 3.06 0 0 Z " fill="#4B8495" transform="translate(40,29)"/>
<path d="M0 0 C1.98 0 3.96 0 6 0 C6 1.65 6 3.3 6 5 C4.02 4.34 2.04 3.68 0 3 C0 2.01 0 1.02 0 0 Z " fill="#3E6D81" transform="translate(50,31)"/>
<path d="M0 0 C2.125 0.9375 2.125 0.9375 4 2 C4 2.66 4 3.32 4 4 C3.01 4 2.02 4 1 4 C-0.33981486 4.3062434 -1.67511887 4.63451555 -3 5 C-2.625 3.0625 -2.625 3.0625 -2 1 C-1.34 0.67 -0.68 0.34 0 0 Z " fill="#E5E0C2" transform="translate(56,53)"/>
<path d="M0 0 C2 3 2 3 2 6 C0.35 6 -1.3 6 -3 6 C-2.42655063 3.13275314 -2.1385485 2.1385485 0 0 Z " fill="#8A5050" transform="translate(61,45)"/>
<path d="M0 0 C0.33 0 0.66 0 1 0 C1.66 2.31 2.32 4.62 3 7 C2.34 7 1.68 7 1 7 C1 7.66 1 8.32 1 9 C0.34 9 -0.32 9 -1 9 C-1.09765625 2.84765625 -1.09765625 2.84765625 -1 1 C-0.67 0.67 -0.34 0.34 0 0 Z " fill="#DDCE72" transform="translate(182,104)"/>
<path d="M0 0 C1.9375 0.3125 1.9375 0.3125 4 1 C4.33 1.99 4.66 2.98 5 4 C3.35 4.33 1.7 4.66 0 5 C0 3.35 0 1.7 0 0 Z " fill="#D6D8CD" transform="translate(85,36)"/>
<path d="M0 0 C3.96 0 7.92 0 12 0 C12 0.33 12 0.66 12 1 C11.05125 1.12375 10.1025 1.2475 9.125 1.375 C5.91332809 1.71687177 5.91332809 1.71687177 4 4 C2.68 2.68 1.36 1.36 0 0 Z " fill="#5B5255" transform="translate(55,9)"/>
<path d="M0 0 C0.6875 1.75 0.6875 1.75 1 4 C-0.3125 6.25 -0.3125 6.25 -2 8 C-2.66 8 -3.32 8 -4 8 C-4 6.35 -4 4.7 -4 3 C-2.68 3 -1.36 3 0 3 C0 2.01 0 1.02 0 0 Z " fill="#A4984F" transform="translate(101,105)"/>
<path d="M0 0 C0.66 0.33 1.32 0.66 2 1 C1.67 3.97 1.34 6.94 1 10 C0.01 9.67 -0.98 9.34 -2 9 C-1.67 7.02 -1.34 5.04 -1 3 C-1.66 2.67 -2.32 2.34 -3 2 C-2.01 1.34 -1.02 0.68 0 0 Z " fill="#EFD54E" transform="translate(196,95)"/>
<path d="M0 0 C1.32 0 2.64 0 4 0 C4 1.65 4 3.3 4 5 C1.525 4.01 1.525 4.01 -1 3 C-0.67 2.01 -0.34 1.02 0 0 Z " fill="#E9E8CA" transform="translate(65,21)"/>
<path d="M0 0 C1.32 0.33 2.64 0.66 4 1 C4.33 2.98 4.66 4.96 5 7 C4.67 6.34 4.34 5.68 4 5 C3.01 5 2.02 5 1 5 C0.67 3.35 0.34 1.7 0 0 Z " fill="#E0D484" transform="translate(94,7)"/>
<path d="M0 0 C1.485 0.99 1.485 0.99 3 2 C2.625 3.9375 2.625 3.9375 2 6 C1.01 6.495 1.01 6.495 0 7 C-1.125 2.25 -1.125 2.25 0 0 Z " fill="#F5E068" transform="translate(198,103)"/>
<path d="M0 0 C0.66 0.33 1.32 0.66 2 1 C1.34 1.66 0.68 2.32 0 3 C-0.71927295 5.31765729 -1.3909893 7.65095874 -2 10 C-2.66 8.68 -3.32 7.36 -4 6 C-2.68 4.02 -1.36 2.04 0 0 Z " fill="#8F8653" transform="translate(153,94)"/>
<path d="M0 0 C2.31 0 4.62 0 7 0 C6.67 1.65 6.34 3.3 6 5 C5.67 4.01 5.34 3.02 5 2 C3.35 2 1.7 2 0 2 C0 1.34 0 0.68 0 0 Z " fill="#E6D25C" transform="translate(44,97)"/>
<path d="M0 0 C1.65 1.65 3.3 3.3 5 5 C3.35 5.33 1.7 5.66 0 6 C0 4.02 0 2.04 0 0 Z " fill="#7DB2AE" transform="translate(96,43)"/>
<path d="M0 0 C-0.99 0.33 -1.98 0.66 -3 1 C-3 2.32 -3 3.64 -3 5 C-4.32 4.34 -5.64 3.68 -7 3 C-7 2.34 -7 1.68 -7 1 C-4.53721199 -0.231394 -2.7204945 -0.07159196 0 0 Z " fill="#7AA3AC" transform="translate(88,35)"/>
<path d="M0 0 C1.125 3.75 1.125 3.75 0 6 C-1.65 5.67 -3.3 5.34 -5 5 C-4 3 -4 3 -1 2 C-0.67 1.34 -0.34 0.68 0 0 Z " fill="#E5CD63" transform="translate(161,105)"/>
<path d="M0 0 C0.66 0 1.32 0 2 0 C2.33 0.66 2.66 1.32 3 2 C3.99 2 4.98 2 6 2 C6 2.66 6 3.32 6 4 C4.35 4.33 2.7 4.66 1 5 C0.67 3.35 0.34 1.7 0 0 Z " fill="#E2C94F" transform="translate(184,104)"/>
<path d="M0 0 C0.33 0.66 0.66 1.32 1 2 C3.02463255 2.65213292 3.02463255 2.65213292 5 3 C3.68 3 2.36 3 1 3 C1 3.66 1 4.32 1 5 C-0.65 5.33 -2.3 5.66 -4 6 C-2.68 4.02 -1.36 2.04 0 0 Z " fill="#E1CC62" transform="translate(48,102)"/>
<path d="M0 0 C0 1.32 0 2.64 0 4 C-1.98 4 -3.96 4 -6 4 C-6 3.01 -6 2.02 -6 1 C-3.92446352 0.4465236 -2.15634036 0 0 0 Z " fill="#723439" transform="translate(112,64)"/>
<path d="M0 0 C0.66 0.33 1.32 0.66 2 1 C0.515 4.465 0.515 4.465 -1 8 C-1.66 7.67 -2.32 7.34 -3 7 C-3 3 -3 3 -1.5 1.25 C-1.005 0.8375 -0.51 0.425 0 0 Z " fill="#C37A65" transform="translate(76,31)"/>
<path d="M0 0 C1.32 0 2.64 0 4 0 C5.75 2.5 5.75 2.5 7 5 C6.01 5 5.02 5 4 5 C4 4.34 4 3.68 4 3 C2.68 2.67 1.36 2.34 0 2 C0 1.34 0 0.68 0 0 Z " fill="#DBE2C5" transform="translate(50,7)"/>
</svg>
