<?xml version="1.0" encoding="UTF-8"?>
<svg version="1.1" xmlns="http://www.w3.org/2000/svg" width="258" height="56">
<path d="M0 0 C1.32 0 2.64 0 4 0 C3.34 3.3 2.68 6.6 2 10 C3.65 9.67 5.3 9.34 7 9 C8.17571451 12.67410785 8.07366746 16.16929183 8 20 C6.68 20 5.36 20 4 20 C4.12375 21.27875 4.2475 22.5575 4.375 23.875 C4.47941406 24.95394531 4.47941406 24.95394531 4.5859375 26.0546875 C4.86374749 28.22668245 4.86374749 28.22668245 7 30 C7 30.99 7 31.98 7 33 C6.34 33 5.68 33 5 33 C5 33.99 5 34.98 5 36 C7.475 35.505 7.475 35.505 10 35 C11.17571451 38.67410785 11.07366746 42.16929183 11 46 C3.375 48 3.375 48 0 48 C-0.66 44.37 -1.32 40.74 -2 37 C-0.35 37 1.3 37 3 37 C2.505 35.02 2.505 35.02 2 33 C-1.96 33 -5.92 33 -10 33 C-10 39.27 -10 45.54 -10 52 C-11.485 52.495 -11.485 52.495 -13 53 C-13 46.4 -13 39.8 -13 33 C-17.455 33.495 -17.455 33.495 -22 34 C-22 35.65 -22 37.3 -22 39 C-20.02 38.505 -20.02 38.505 -18 38 C-18 41.63 -18 45.26 -18 49 C-21.63 49 -25.26 49 -29 49 C-29 45.37 -29 41.74 -29 38 C-27.35 38.33 -25.7 38.66 -24 39 C-24 38.01 -24 37.02 -24 36 C-24.99 36 -25.98 36 -27 36 C-26.73958333 34.046875 -26.47916667 32.09375 -26.21875 30.140625 C-25.93222643 27.69541605 -25.93222643 27.69541605 -26 24 C-28.97 23.67 -31.94 23.34 -35 23 C-34.67 19.7 -34.34 16.4 -34 13 C-31 12 -31 12 -28 13 C-28.66 9.7 -29.32 6.4 -30 3 C-29.16339844 3.02320313 -28.32679687 3.04640625 -27.46484375 3.0703125 C-18.47673474 3.20966303 -9.8502324 2.64070614 -1 1 C-0.67 0.67 -0.34 0.34 0 0 Z M-14.1875 5 C-14.93708984 5.09539063 -15.68667969 5.19078125 -16.45898438 5.2890625 C-18.30620242 5.5243769 -20.15313012 5.76196844 -22 6 C-18.80568766 9.23726107 -15.60320996 12.22038089 -12 15 C-8.36440339 11.56638098 -5.63886654 8.2026393 -3 4 C-6.77602607 4 -10.45001665 4.51690171 -14.1875 5 Z M-1 8 C-1.33 8.66 -1.66 9.32 -2 10 C-1.34 10 -0.68 10 0 10 C-0.33 9.34 -0.66 8.68 -1 8 Z M-25 10 C-25 11.32 -25 12.64 -25 14 C-24.01 13.67 -23.02 13.34 -22 13 C-22.99 12.01 -23.98 11.02 -25 10 Z M-22 13 C-22.66 17.62 -23.32 22.24 -24 27 C-23.01 27 -22.02 27 -21 27 C-19.3122919 25.23598598 -19.3122919 25.23598598 -17.8125 23 C-17.28269531 22.2575 -16.75289062 21.515 -16.20703125 20.75 C-15.80871094 20.1725 -15.41039062 19.595 -15 19 C-16.61594832 16.95880212 -18.2856382 14.95927063 -20 13 C-20.66 13 -21.32 13 -22 13 Z M-5 13 C-6.35827971 14.64639965 -7.69254251 16.31295807 -9 18 C-7.35653302 19.33624901 -5.71016314 20.66892851 -4.0625 22 C-3.14597656 22.7425 -2.22945312 23.485 -1.28515625 24.25 C0.65261062 26.10133401 0.65261062 26.10133401 2 26 C2 24.02 2 22.04 2 20 C0.35 20.33 -1.3 20.66 -3 21 C-3.33 18.36 -3.66 15.72 -4 13 C-4.33 13 -4.66 13 -5 13 Z M-10 22 C-10 24.97 -10 27.94 -10 31 C-5.545 30.505 -5.545 30.505 -1 30 C-3.85276137 27.06799526 -6.65079784 24.35684596 -10 22 Z M-14 24 C-15.0536394 25.30756357 -16.06853634 26.64651756 -17.0625 28 C-17.61035156 28.7425 -18.15820312 29.485 -18.72265625 30.25 C-19.35494141 31.11625 -19.35494141 31.11625 -20 32 C-16.535 31.505 -16.535 31.505 -13 31 C-13 28.69 -13 26.38 -13 24 C-13.33 24 -13.66 24 -14 24 Z " fill="#ABAA96" transform="translate(35,1)"/>
<path d="M0 0 C1.32 0.66 2.64 1.32 4 2 C4.02464775 7.53588533 4.04283496 13.071739 4.05493164 18.60766602 C4.05997244 20.4924373 4.06680498 22.37720465 4.07543945 24.26196289 C4.08751617 26.96501636 4.09323068 29.66801831 4.09765625 32.37109375 C4.10281754 33.21900986 4.10797882 34.06692596 4.11329651 34.9405365 C4.11349195 36.96071068 4.06206211 38.98077934 4 41 C3 42 3 42 0.75 42.4375 C-2.5388894 41.9142676 -3.68145498 40.74682369 -5.6640625 38.1328125 C-8.49183164 33.61830387 -10.70581675 28.80177889 -13 24 C-13.33 29.61 -13.66 35.22 -14 41 C-15.32 41.66 -16.64 42.32 -18 43 C-19.47729492 41.93334961 -19.47729492 41.93334961 -21 40 C-21.37231445 36.87719727 -21.37231445 36.87719727 -21.36328125 33.06640625 C-21.36377975 32.39206039 -21.36427826 31.71771454 -21.36479187 31.02293396 C-21.36245394 29.59818574 -21.35274178 28.17343319 -21.33618164 26.7487793 C-21.31262108 24.5736779 -21.31561817 22.3998057 -21.32226562 20.22460938 C-21.27553839 8.61402377 -21.27553839 8.61402377 -19 5 C-16.6875 5.1875 -16.6875 5.1875 -14 6 C-11.01246046 10.24894512 -8.99097054 15.1128339 -6.8125 19.8125 C-6.44447266 20.60076172 -6.07644531 21.38902344 -5.69726562 22.20117188 C-4.79575279 24.1329851 -3.89754274 26.06633903 -3 28 C-3.01571045 27.29391602 -3.0314209 26.58783203 -3.04760742 25.86035156 C-3.11002097 22.65698271 -3.14901111 19.45374188 -3.1875 16.25 C-3.21263672 15.13882812 -3.23777344 14.02765625 -3.26367188 12.8828125 C-3.27333984 11.81289062 -3.28300781 10.74296875 -3.29296875 9.640625 C-3.3086792 8.65610352 -3.32438965 7.67158203 -3.34057617 6.65722656 C-2.94965182 3.60717591 -2.03157056 2.25886277 0 0 Z " fill="#D9B745" transform="translate(81,0)"/>
<path d="M0 0 C1.65 0 3.3 0 5 0 C5 0.66 5 1.32 5 2 C5.66 2 6.32 2 7 2 C7 2.66 7 3.32 7 4 C7.515625 4.226875 8.03125 4.45375 8.5625 4.6875 C11.93696162 6.50451779 14.90564539 8.73874086 18 11 C17.34 13.97 16.68 16.94 16 20 C16.66 20 17.32 20 18 20 C18.33 29.9 18.66 39.8 19 50 C18.34 50 17.68 50 17 50 C17 43.4 17 36.8 17 30 C14.03 30.33 11.06 30.66 8 31 C8 32.65 8 34.3 8 36 C9.98 35.505 9.98 35.505 12 35 C12 38.63 12 42.26 12 46 C8.37 46 4.74 46 1 46 C1 42.37 1 38.74 1 35 C2.65 35.33 4.3 35.66 6 36 C6 35.01 6 34.02 6 33 C5.01 33 4.02 33 3 33 C3.26041667 31.046875 3.52083333 29.09375 3.78125 27.140625 C4.06777357 24.69541605 4.06777357 24.69541605 4 21 C1.03 20.67 -1.94 20.34 -5 20 C-4.67 16.7 -4.34 13.4 -4 10 C-1 9 -1 9 2 10 C1.34 6.7 0.68 3.4 0 0 Z M5 7 C5 8.32 5 9.64 5 11 C5.99 10.67 6.98 10.34 8 10 C7.01 9.01 6.02 8.02 5 7 Z M8 10 C7.34 14.62 6.68 19.24 6 24 C6.99 24 7.98 24 9 24 C10.6877081 22.23598598 10.6877081 22.23598598 12.1875 20 C12.71730469 19.2575 13.24710938 18.515 13.79296875 17.75 C14.19128906 17.1725 14.58960938 16.595 15 16 C13.38405168 13.95880212 11.7143618 11.95927063 10 10 C9.34 10 8.68 10 8 10 Z M16 21 C14.9463606 22.30756357 13.93146366 23.64651756 12.9375 25 C12.38964844 25.7425 11.84179688 26.485 11.27734375 27.25 C10.64505859 28.11625 10.64505859 28.11625 10 29 C13.465 28.505 13.465 28.505 17 28 C17 25.69 17 23.38 17 21 C16.67 21 16.34 21 16 21 Z " fill="#73857D" transform="translate(5,4)"/>
<path d="M0 0 C2.42093883 0.00186903 4.84187804 0.00329064 7.26281738 0.00428772 C13.58210323 0.00807473 19.90136546 0.01787168 26.22064209 0.0289917 C32.69006023 0.03928861 39.15948225 0.04380295 45.62890625 0.04882812 C58.28386414 0.059498 70.9388058 0.07633072 83.59375 0.09765625 C83.26375 1.41765625 82.93375 2.73765625 82.59375 4.09765625 C41.67375 4.09765625 0.75375 4.09765625 -41.40625 4.09765625 C-41.40625 3.10765625 -41.40625 2.11765625 -41.40625 1.09765625 C-27.60252386 -0.0425005 -13.84235264 -0.03167622 0 0 Z " fill="#D0B143" transform="translate(174.40625,45.90234375)"/>
<path d="M0 0 C0.91007812 0.00902344 1.82015625 0.01804687 2.7578125 0.02734375 C3.45648438 0.03894531 4.15515625 0.05054687 4.875 0.0625 C7.80847555 4.99937739 6.96055276 9.87966653 6.6875 15.4375 C6.65591797 16.46617188 6.62433594 17.49484375 6.59179688 18.5546875 C6.34811036 24.03586834 6.03272099 28.3768495 2.875 33.0625 C-0.26371188 34.63185594 -2.66355822 34.41451103 -6.125 34.0625 C-9.59491083 31.4977833 -10.90573813 29.95641378 -11.9375 25.75 C-11.999375 24.863125 -12.06125 23.97625 -12.125 23.0625 C-8.125 23.0625 -8.125 23.0625 -6.0625 25 C-5.423125 25.680625 -4.78375 26.36125 -4.125 27.0625 C-3.135 27.3925 -2.145 27.7225 -1.125 28.0625 C-1.125 24.1025 -1.125 20.1425 -1.125 16.0625 C-2.445 17.0525 -3.765 18.0425 -5.125 19.0625 C-7.75 18.9375 -7.75 18.9375 -10.125 18.0625 C-12.58417586 14.3737362 -12.94091937 11.3440571 -12.125 7.0625 C-9.03772759 1.71428832 -6.02298224 -0.07721772 0 0 Z M-4.6875 6.3125 C-6.27033111 8.23942483 -6.7056825 9.63045851 -7.125 12.0625 C-6.465 12.0625 -5.805 12.0625 -5.125 12.0625 C-3.805 9.7525 -2.485 7.4425 -1.125 5.0625 C-3.19820645 4.85426832 -3.19820645 4.85426832 -4.6875 6.3125 Z " fill="#D5B444" transform="translate(124.125,21.9375)"/>
<path d="M0 0 C1.32 0 2.64 0 4 0 C5.27698411 2.55396822 5.15523181 4.85152999 5.24072266 7.66308594 C5.47072951 14.95133022 6.15411458 20.98201365 9.2578125 27.703125 C10.16022443 30.49585244 9.78183174 32.20915758 9 35 C6.5625 34.625 6.5625 34.625 4 34 C3.67 33.34 3.34 32.68 3 32 C2.44570312 32.30550781 1.89140625 32.61101563 1.3203125 32.92578125 C-1.16656597 34.07711387 -3.44020128 34.65454742 -6.125 35.1875 C-6.99382812 35.36667969 -7.86265625 35.54585937 -8.7578125 35.73046875 C-11 36 -11 36 -13 35 C-13.41463038 31.61385193 -13.63042581 29.03010753 -11.8046875 26.046875 C-7.81822004 21.27914005 -7.81822004 21.27914005 -4.8359375 20.26171875 C-4.23007813 19.84535156 -3.62421875 19.42898437 -3 19 C-2.58379873 16.42437764 -2.39455566 14.20634702 -2.375 11.625 C-2.2186019 3.46101896 -2.2186019 3.46101896 0 0 Z M-4 26 C-4.99 27.485 -4.99 27.485 -6 29 C-4.68 28.34 -3.36 27.68 -2 27 C-2.66 26.67 -3.32 26.34 -4 26 Z " fill="#D9B745" transform="translate(183,7)"/>
<path d="M0 0 C0.19335938 0.90363281 0.38671875 1.80726562 0.5859375 2.73828125 C0.97652344 4.50751953 0.97652344 4.50751953 1.375 6.3125 C1.75785156 8.07013672 1.75785156 8.07013672 2.1484375 9.86328125 C2.85695531 13.12920445 2.85695531 13.12920445 5 16 C4.8125 18.125 4.8125 18.125 4 20 C3.01 20.33 2.02 20.66 1 21 C-1 19 -3 17 -5 15 C-5.44730469 15.44472656 -5.89460938 15.88945313 -6.35546875 16.34765625 C-11.32574032 21 -11.32574032 21 -14.8125 21 C-17 20 -17 20 -19 18 C-19 11.59415832 -16.39808077 7.54566737 -12 3 C-7.95068453 -0.25725156 -5.10032872 -1.3164951 0 0 Z M-9 8 C-8 10 -8 10 -8 10 Z " fill="#D8B645" transform="translate(106,22)"/>
<path d="M0 0 C1.60053344 2.71317193 2.42150218 5.30467432 3.0625 8.375 C3.30806641 9.54482422 3.30806641 9.54482422 3.55859375 10.73828125 C4.09449348 13.48417457 4.57459177 16.2348465 5 19 C3.02 19.99 3.02 19.99 1 21 C-1.34058637 18.87219421 -2.70700306 16.88437779 -4 14 C-5.051875 15.4540625 -5.051875 15.4540625 -6.125 16.9375 C-8.18360075 19.40548158 -8.94372564 19.98086672 -12.125 21.0625 C-15 21 -15 21 -16.875 19.9375 C-18.54164491 17.0671671 -18.44986217 15.27756727 -18 12 C-14.95121102 6.25420539 -7.39968749 -3.45318749 0 0 Z M-8 7 C-7 9 -7 9 -7 9 Z M-9 9 C-8 11 -8 11 -8 11 Z " fill="#DBB946" transform="translate(241,22)"/>
<path d="M0 0 C1.32 0 2.64 0 4 0 C3.67 0.99 3.34 1.98 3 3 C3 2.34 3 1.68 3 1 C1.35 1.66 -0.3 2.32 -2 3 C-1.67 4.32 -1.34 5.64 -1 7 C-0.34 7 0.32 7 1 7 C1.33 11.29 1.66 15.58 2 20 C0.35 20.33 -1.3 20.66 -3 21 C-3.66 18.69 -4.32 16.38 -5 14 C-5.99 14.99 -6.98 15.98 -8 17 C-7.34 17.99 -6.68 18.98 -6 20 C-7.32 20.33 -8.64 20.66 -10 21 C-10 24.3 -10 27.6 -10 31 C-6.7 30.34 -3.4 29.68 0 29 C0.66 29.99 1.32 30.98 2 32 C-3.94 32.495 -3.94 32.495 -10 33 C-10 39.27 -10 45.54 -10 52 C-10.66 52 -11.32 52 -12 52 C-12 42.43 -12 32.86 -12 23 C-12.66 23 -13.32 23 -14 23 C-13.25257105 15.15199604 -8.97080534 10.9649664 -4 5 C-13.405 5.99 -13.405 5.99 -23 7 C-23 6.34 -23 5.68 -23 5 C-23.66 4.67 -24.32 4.34 -25 4 C-24.27820557 3.91435791 -23.55641113 3.82871582 -22.81274414 3.74047852 C-19.5621131 3.35226913 -16.31231562 2.95747476 -13.0625 2.5625 C-11.92619141 2.42779297 -10.78988281 2.29308594 -9.61914062 2.15429688 C-7.99975586 1.95610352 -7.99975586 1.95610352 -6.34765625 1.75390625 C-5.34742432 1.63345947 -4.34719238 1.5130127 -3.31665039 1.38891602 C-1.04439099 1.23781714 -1.04439099 1.23781714 0 0 Z M-1 8 C-1.33 8.66 -1.66 9.32 -2 10 C-1.34 10 -0.68 10 0 10 C-0.33 9.34 -0.66 8.68 -1 8 Z " fill="#C58242" transform="translate(35,1)"/>
<path d="M0 0 C2.27264766 1.81811813 2.87654724 3.1983191 3.31640625 6.0546875 C3.60182756 11.52372813 2.64394347 14.71300768 -1 19 C-4.12860495 20.56430248 -6.55602925 20.35627284 -10 20 C-12.68610593 17.86489016 -13.75540751 16.2552671 -14.4140625 12.875 C-14.68342687 8.67858662 -14.34372597 5.84040538 -11.6875 2.5 C-7.68276507 -1.22533482 -5.16791957 -1.39964488 0 0 Z M-6 6 C-7.41577477 7.18424326 -7.41577477 7.18424326 -7.0625 10.5625 C-7.041875 11.696875 -7.02125 12.83125 -7 14 C-5.68 13.34 -4.36 12.68 -3 12 C-3 10.35 -3 8.7 -3 7 C-3.99 6.67 -4.98 6.34 -6 6 Z " fill="#D7B645" transform="translate(208,22)"/>
<path d="M0 0 C2.27264766 1.81811813 2.87654724 3.1983191 3.31640625 6.0546875 C3.60182756 11.52372813 2.64394347 14.71300768 -1 19 C-4.12860495 20.56430248 -6.55602925 20.35627284 -10 20 C-12.70043447 17.8535008 -13.79798635 16.26947214 -14.34375 12.83984375 C-14.53127584 8.15951126 -14.20206282 4.64372666 -11 1 C-7.1375985 -1.29656306 -4.26861434 -1.29914349 0 0 Z M-6 6 C-8.33391203 8.78114056 -8.33391203 8.78114056 -7.625 11.6875 C-7.41875 12.450625 -7.2125 13.21375 -7 14 C-6.01 13.67 -5.02 13.34 -4 13 C-3.67 11.02 -3.34 9.04 -3 7 C-3.99 6.67 -4.98 6.34 -6 6 Z " fill="#D7B545" transform="translate(147,22)"/>
<path d="M0 0 C1.65 0.33 3.3 0.66 5 1 C5.33 12.55 5.66 24.1 6 36 C4.515 36.495 4.515 36.495 3 37 C0 35 0 35 -0.73046875 33.03125 C-1.83677987 26.90398839 -2.20257146 20.90000628 -2.25 14.6875 C-2.25926514 13.92308594 -2.26853027 13.15867187 -2.27807617 12.37109375 C-2.25295592 7.8632391 -1.70067362 4.24493534 0 0 Z " fill="#D4B243" transform="translate(215,6)"/>
<path d="M0 0 C1.2065625 0.0309375 1.2065625 0.0309375 2.4375 0.0625 C3.0975 1.3825 3.7575 2.7025 4.4375 4.0625 C3.53 4.536875 2.6225 5.01125 1.6875 5.5 C-2.59302183 8.31666413 -3.77800059 12.45524699 -5.5625 17.0625 C-6.21443471 18.40309813 -6.87665093 19.73893161 -7.5625 21.0625 C-8.8825 21.0625 -10.2025 21.0625 -11.5625 21.0625 C-14.19125405 15.69069824 -15.1708965 11.01757399 -15.5625 5.0625 C-14.2425 4.4025 -12.9225 3.7425 -11.5625 3.0625 C-10.5725 4.0525 -9.5825 5.0425 -8.5625 6.0625 C-7.758125 5.258125 -6.95375 4.45375 -6.125 3.625 C-2.5625 0.0625 -2.5625 0.0625 0 0 Z " fill="#D6B544" transform="translate(166.5625,20.9375)"/>
<path d="M0 0 C1.65 0 3.3 0 5 0 C4.01 0.495 4.01 0.495 3 1 C3.33 1.9075 3.66 2.815 4 3.75 C5 7 5 7 5 11 C5.99 10.67 6.98 10.34 8 10 C7.67 13.63 7.34 17.26 7 21 C3.04 20.67 -0.92 20.34 -5 20 C-4.67 16.7 -4.34 13.4 -4 10 C-1 9 -1 9 2 10 C1.34 6.7 0.68 3.4 0 0 Z " fill="#4F97AD" transform="translate(5,4)"/>
<path d="M0 0 C35.97 0 71.94 0 109 0 C108.67 1.32 108.34 2.64 108 4 C103.38 4 98.76 4 94 4 C94 3.67 94 3.34 94 3 C96.97 2.505 96.97 2.505 100 2 C67 1.67 34 1.34 0 1 C0 0.67 0 0.34 0 0 Z " fill="#685721" transform="translate(149,46)"/>
<path d="M0 0 C11.55 0 23.1 0 35 0 C34.67 1.32 34.34 2.64 34 4 C23.11 4 12.22 4 1 4 C0.67 2.68 0.34 1.36 0 0 Z " fill="#AD9338" transform="translate(73,47)"/>
<path d="M0 0 C0.99 0.33 1.98 0.66 3 1 C3 1.99 3 2.98 3 4 C4.65 3.67 6.3 3.34 8 3 C9.17571451 6.67410785 9.07366746 10.16929183 9 14 C1.375 16 1.375 16 -2 16 C-2.66 12.37 -3.32 8.74 -4 5 C-2.35 5 -0.7 5 1 5 C0.67 3.35 0.34 1.7 0 0 Z " fill="#D0585C" transform="translate(37,33)"/>
<path d="M0 0 C1.32 0.33 2.64 0.66 4 1 C4 1.66 4 2.32 4 3 C4.515625 3.226875 5.03125 3.45375 5.5625 3.6875 C8.92403127 5.4975553 11.92911144 7.73996404 15 10 C14.71812064 11.79323253 14.4241719 13.58457126 14.125 15.375 C13.96257813 16.37273438 13.80015625 17.37046875 13.6328125 18.3984375 C13 21 13 21 11 23 C9.68 23 8.36 23 7 23 C7.64719947 19.50512285 9.14247988 17.00290786 11 14 C10.2059375 13.32453125 9.411875 12.6490625 8.59375 11.953125 C7.56198379 11.05267449 6.53076185 10.15160005 5.5 9.25 C4.97535156 8.8065625 4.45070313 8.363125 3.91015625 7.90625 C2.40625 6.578125 2.40625 6.578125 0 4 C0 2.68 0 1.36 0 0 Z " fill="#AFA384" transform="translate(8,5)"/>
<path d="M0 0 C0.33 0 0.66 0 1 0 C1 2.31 1 4.62 1 7 C2.32 7 3.64 7 5 7 C5.33 6.01 5.66 5.02 6 4 C6 7.3 6 10.6 6 14 C2.37 14 -1.26 14 -5 14 C-5 10.37 -5 6.74 -5 3 C-2.525 3.495 -2.525 3.495 0 4 C0 2.68 0 1.36 0 0 Z " fill="#D7CEAE" transform="translate(11,36)"/>
<path d="M0 0 C1.32 0 2.64 0 4 0 C3.67 0.99 3.34 1.98 3 3 C3 2.34 3 1.68 3 1 C1.35 1.66 -0.3 2.32 -2 3 C-1.67 4.98 -1.34 6.96 -1 9 C-1.99 9.33 -2.98 9.66 -4 10 C-4 8.35 -4 6.7 -4 5 C-13.405 5.99 -13.405 5.99 -23 7 C-23 6.34 -23 5.68 -23 5 C-23.66 4.67 -24.32 4.34 -25 4 C-24.27820557 3.91435791 -23.55641113 3.82871582 -22.81274414 3.74047852 C-19.5621131 3.35226913 -16.31231562 2.95747476 -13.0625 2.5625 C-11.92619141 2.42779297 -10.78988281 2.29308594 -9.61914062 2.15429688 C-7.99975586 1.95610352 -7.99975586 1.95610352 -6.34765625 1.75390625 C-5.34742432 1.63345947 -4.34719238 1.5130127 -3.31665039 1.38891602 C-1.04439099 1.23781714 -1.04439099 1.23781714 0 0 Z " fill="#717064" transform="translate(35,1)"/>
<path d="M0 0 C0.33 0.66 0.66 1.32 1 2 C-0.32 2 -1.64 2 -3 2 C-2.67 2.99 -2.34 3.98 -2 5 C-1.01 5 -0.02 5 1 5 C1.33 6.32 1.66 7.64 2 9 C2.33 7.68 2.66 6.36 3 5 C3.99 5.33 4.98 5.66 6 6 C6.66 5.01 7.32 4.02 8 3 C8 5.31 8 7.62 8 10 C0.375 12 0.375 12 -3 12 C-3.66 8.37 -4.32 4.74 -5 1 C-3.35 0.67 -1.7 0.34 0 0 Z " fill="#853538" transform="translate(38,37)"/>
<path d="M0 0 C-0.33 2.97 -0.66 5.94 -1 9 C0.65 8.67 2.3 8.34 4 8 C4 9.98 4 11.96 4 14 C2.68 13.67 1.36 13.34 0 13 C0 15.31 0 17.62 0 20 C-2.28062828 16.57905758 -2.21925007 15.31812778 -2.125 11.3125 C-2.10695312 10.31863281 -2.08890625 9.32476562 -2.0703125 8.30078125 C-2.04710937 7.54152344 -2.02390625 6.78226563 -2 6 C-2.66 6 -3.32 6 -4 6 C-4.33 4.68 -4.66 3.36 -5 2 C-2 0 -2 0 0 0 Z " fill="#DCC460" transform="translate(38,2)"/>
<path d="M0 0 C0.66 0 1.32 0 2 0 C2.33 4.29 2.66 8.58 3 13 C1.35 13.33 -0.3 13.66 -2 14 C-2.16802051 12.54182203 -2.33437143 11.0834516 -2.5 9.625 C-2.5928125 8.81289063 -2.685625 8.00078125 -2.78125 7.1640625 C-3 5 -3 5 -3 3 C-1.68 3 -0.36 3 1 3 C0.67 2.01 0.34 1.02 0 0 Z " fill="#A18B35" transform="translate(34,8)"/>
<path d="M0 0 C0.33 0 0.66 0 1 0 C1 2.97 1 5.94 1 9 C5.95 8.01 5.95 8.01 11 7 C11.99 8.485 11.99 8.485 13 10 C7.06 10.495 7.06 10.495 1 11 C1 17.27 1 23.54 1 30 C0.67 30 0.34 30 0 30 C0 20.1 0 10.2 0 0 Z " fill="#725C31" transform="translate(24,23)"/>
<path d="M0 0 C0.66 0 1.32 0 2 0 C2.33 9.9 2.66 19.8 3 30 C2.34 30 1.68 30 1 30 C1 23.4 1 16.8 1 10 C-3.455 10.495 -3.455 10.495 -8 11 C-7.67 10.34 -7.34 9.68 -7 9 C-4.35139573 8.40644386 -1.70802678 8.25790731 1 8 C0.67 5.36 0.34 2.72 0 0 Z " fill="#5B4A29" transform="translate(21,24)"/>
<path d="M0 0 C0.33 0 0.66 0 1 0 C1.02465881 3.96930989 1.04284023 7.93859034 1.05493164 11.90795898 C1.05997057 13.25920386 1.06680177 14.61044326 1.07543945 15.96166992 C1.08752419 17.90020434 1.09269828 19.838778 1.09765625 21.77734375 C1.10289307 22.94515381 1.10812988 24.11296387 1.11352539 25.31616211 C1 28 1 28 0 29 C-1.66617115 29.04063832 -3.33388095 29.042721 -5 29 C-5 28.34 -5 27.68 -5 27 C-3.68 27 -2.36 27 -1 27 C-0.67 18.09 -0.34 9.18 0 0 Z " fill="#A48A34" transform="translate(84,13)"/>
<path d="M0 0 C1.32 0.66 2.64 1.32 4 2 C3.71812064 3.79323253 3.4241719 5.58457126 3.125 7.375 C2.96257813 8.37273438 2.80015625 9.37046875 2.6328125 10.3984375 C2 13 2 13 0 15 C-1.32 15 -2.64 15 -4 15 C-3.40312566 11.65750371 -2.26396123 9.53563658 0 7 C0.66 7 1.32 7 2 7 C2 6.01 2 5.02 2 4 C1.01 3.34 0.02 2.68 -1 2 C-0.67 1.34 -0.34 0.68 0 0 Z " fill="#86A2AC" transform="translate(19,13)"/>
<path d="M0 0 C2.475 0.495 2.475 0.495 5 1 C5 8.26 5 15.52 5 23 C4.67 23 4.34 23 4 23 C3.25194283 15.97360585 2.86205046 9.06608191 3 2 C2.34 2 1.68 2 1 2 C0.67 2.66 0.34 3.32 0 4 C0 2.68 0 1.36 0 0 Z " fill="#B79B3B" transform="translate(215,6)"/>
<path d="M0 0 C0 2.31 0 4.62 0 7 C-1.32 7 -2.64 7 -4 7 C-4.33 8.98 -4.66 10.96 -5 13 C-5.33 13 -5.66 13 -6 13 C-5.67 9.04 -5.34 5.08 -5 1 C-1 0 -1 0 0 0 Z " fill="#5F552D" transform="translate(43,14)"/>
<path d="M0 0 C0.66 0 1.32 0 2 0 C2.66 0.99 3.32 1.98 4 3 C4.66 2.34 5.32 1.68 6 1 C6 1.66 6 2.32 6 3 C6.99 3 7.98 3 9 3 C8.34 4.32 7.68 5.64 7 7 C5.35 6.67 3.7 6.34 2 6 C2 6.66 2 7.32 2 8 C1.34 7.67 0.68 7.34 0 7 C0 4.69 0 2.38 0 0 Z " fill="#7A6E6B" transform="translate(9,25)"/>
<path d="M0 0 C0.33 0 0.66 0 1 0 C1.33 2.31 1.66 4.62 2 7 C-1.75 10 -1.75 10 -4 10 C-4.40717933 6.43718089 -4.14368753 5.20857868 -2.0625 2.1875 C-1.381875 1.465625 -0.70125 0.74375 0 0 Z " fill="#B3A388" transform="translate(30,7)"/>
<path d="M0 0 C0.33 1.32 0.66 2.64 1 4 C1.99 3.67 2.98 3.34 4 3 C3.67 6.63 3.34 10.26 3 14 C2.34 13.01 1.68 12.02 1 11 C0.4121875 10.13375 0.4121875 10.13375 -0.1875 9.25 C-1.36513195 5.98886538 -0.64352802 3.34634569 0 0 Z " fill="#458191" transform="translate(9,11)"/>
<path d="M0 0 C-0.33 0.99 -0.66 1.98 -1 3 C-5.62 3 -10.24 3 -15 3 C-15 2.67 -15 2.34 -15 2 C-9.75614911 0.2520497 -5.52677733 -0.19392201 0 0 Z " fill="#A98F36" transform="translate(258,47)"/>
<path d="M0 0 C0 2.97 0 5.94 0 9 C-2.5 7.25 -2.5 7.25 -5 5 C-5 3.68 -5 2.36 -5 1 C-1.125 0 -1.125 0 0 0 Z " fill="#B2474B" transform="translate(45,36)"/>
<path d="M0 0 C0.33 0 0.66 0 1 0 C2.12880057 3.31114834 3.21302675 6.58978257 4 10 C1.625 9.6875 1.625 9.6875 -1 9 C-1.66 8.01 -2.32 7.02 -3 6 C-2.01 5.67 -1.02 5.34 0 5 C0 3.35 0 1.7 0 0 Z " fill="#C9A07A" transform="translate(38,24)"/>
<path d="M0 0 C1.65 0 3.3 0 5 0 C4.01 0.495 4.01 0.495 3 1 C3.09539063 1.61488281 3.19078125 2.22976562 3.2890625 2.86328125 C3.39992188 3.67152344 3.51078125 4.47976562 3.625 5.3125 C3.74101562 6.11300781 3.85703125 6.91351563 3.9765625 7.73828125 C4 10 4 10 2 13 C1.93941406 12.39671875 1.87882813 11.7934375 1.81640625 11.171875 C1.69072266 9.97304688 1.69072266 9.97304688 1.5625 8.75 C1.48128906 7.96109375 1.40007813 7.1721875 1.31640625 6.359375 C1.02365007 4.17635361 0.57935581 2.1226818 0 0 Z " fill="#62A5B6" transform="translate(5,4)"/>
<path d="M0 0 C1.32 0 2.64 0 4 0 C3.625 2.4375 3.625 2.4375 3 5 C0.04335481 6.4783226 -2.74229737 6.06032783 -6 6 C-6 5.67 -6 5.34 -6 5 C-4.02 5 -2.04 5 0 5 C0 3.35 0 1.7 0 0 Z " fill="#857E6B" transform="translate(12,44)"/>
<path d="M0 0 C1.32 0.33 2.64 0.66 4 1 C4 1.66 4 2.32 4 3 C4.99 3.33 5.98 3.66 7 4 C5.68 4.99 4.36 5.98 3 7 C1.5 5.75 1.5 5.75 0 4 C0 2.68 0 1.36 0 0 Z " fill="#DDAB7B" transform="translate(8,5)"/>
<path d="M0 0 C1.65 0.33 3.3 0.66 5 1 C4.67 2.65 4.34 4.3 4 6 C3.01 5.67 2.02 5.34 1 5 C0.34 5 -0.32 5 -1 5 C-0.67 3.35 -0.34 1.7 0 0 Z " fill="#35778A" transform="translate(2,13)"/>
<path d="M0 0 C0.99 0.495 0.99 0.495 2 1 C1.67 2.32 1.34 3.64 1 5 C2.32 5 3.64 5 5 5 C5 6.32 5 7.64 5 9 C3.68 8.67 2.36 8.34 1 8 C1.33 7.34 1.66 6.68 2 6 C1.34 6 0.68 6 0 6 C0 4.02 0 2.04 0 0 Z " fill="#918A74" transform="translate(6,39)"/>
<path d="M0 0 C1.65 0 3.3 0 5 0 C4.34 1.32 3.68 2.64 3 4 C1.68 4 0.36 4 -1 4 C-0.67 2.68 -0.34 1.36 0 0 Z " fill="#DACE84" transform="translate(16,24)"/>
<path d="M0 0 C1.42944945 2.35438733 2.08661261 3.48032433 1.625 6.25 C1.41875 6.8275 1.2125 7.405 1 8 C0.01 8 -0.98 8 -2 8 C-1.125 2.25 -1.125 2.25 0 0 Z " fill="#B87140" transform="translate(23,16)"/>
<path d="M0 0 C0 1.98 0 3.96 0 6 C-3 5 -3 5 -4.1875 2.9375 C-4.5896875 1.9784375 -4.5896875 1.9784375 -5 1 C-1.125 0 -1.125 0 0 0 Z " fill="#A58F35" transform="translate(43,14)"/>
<path d="M0 0 C1.32 0 2.64 0 4 0 C3.34 1.32 2.68 2.64 2 4 C0.68 4 -0.64 4 -2 4 C-2 3.34 -2 2.68 -2 2 C-1.34 2 -0.68 2 0 2 C0 1.34 0 0.68 0 0 Z " fill="#EFDC8E" transform="translate(11,31)"/>
<path d="M0 0 C0 1.32 0 2.64 0 4 C-1.65 3.67 -3.3 3.34 -5 3 C-5 2.34 -5 1.68 -5 1 C-3 0 -3 0 0 0 Z " fill="#B39D3D" transform="translate(42,10)"/>
<path d="M0 0 C0 0.99 0 1.98 0 3 C-0.66 3 -1.32 3 -2 3 C-2 3.99 -2 4.98 -2 6 C-2.66 6 -3.32 6 -4 6 C-4.33 4.68 -4.66 3.36 -5 2 C-2 0 -2 0 0 0 Z " fill="#F2D08A" transform="translate(38,2)"/>
</svg>
