<?xml version="1.0" standalone="no"?>
<!DOCTYPE svg PUBLIC "-//W3C//DTD SVG 20010904//EN"
 "http://www.w3.org/TR/2001/REC-SVG-20010904/DTD/svg10.dtd">
<svg version="1.0" xmlns="http://www.w3.org/2000/svg"
 width="222.000000pt" height="131.000000pt" viewBox="0 0 222.000000 131.000000"
 preserveAspectRatio="xMidYMid meet">

<g transform="translate(0.000000,131.000000) scale(0.100000,-0.100000)"
fill="#000000" stroke="none">
<path d="M963 1286 c-30 -25 -28 -25 -243 -40 -41 -3 -91 -10 -110 -16 -27 -8
-37 -7 -45 3 -5 8 -20 19 -33 26 -20 11 -27 10 -43 -5 -21 -19 -25 -44 -8 -61
6 -6 15 -26 19 -45 l8 -33 1 30 c0 17 -6 39 -14 49 -19 26 -19 42 1 50 21 8
62 -18 75 -47 5 -12 28 -32 50 -45 21 -12 62 -43 89 -67 36 -32 59 -45 81 -45
18 0 28 4 24 10 -4 6 -11 7 -17 4 -5 -4 -2 6 8 22 l18 29 -27 -24 -26 -24 -36
29 c-20 16 -55 43 -78 59 -49 37 -57 55 -25 55 13 0 74 5 137 10 63 6 116 8
118 6 3 -2 -3 -19 -12 -38 -16 -30 -14 -29 21 12 83 96 101 113 112 106 17
-10 15 -53 -3 -63 -12 -7 -14 -20 -9 -56 4 -26 10 -47 14 -47 4 0 6 16 3 35
-3 25 1 43 16 64 24 33 26 52 9 69 -18 18 -44 14 -75 -12z"/>
<path d="M937 1156 c-30 -39 -28 -44 13 -38 25 4 30 9 30 33 0 41 -13 42 -43
5z"/>
<path d="M529 1153 c-1 -4 0 -21 1 -37 1 -18 -2 -26 -9 -22 -7 5 -11 -3 -11
-21 0 -21 3 -24 10 -13 5 8 12 11 16 7 11 -10 12 -47 2 -47 -4 0 -8 5 -8 10 0
6 -4 10 -10 10 -5 0 -10 -7 -10 -15 0 -10 10 -15 30 -15 26 0 30 4 30 26 0 14
4 23 8 20 5 -3 3 -38 -4 -78 -7 -40 -13 -74 -14 -75 0 -2 -8 -3 -17 -3 -17 1
-17 1 0 14 24 18 22 24 -10 29 l-28 4 26 2 c19 1 28 7 31 24 4 21 1 24 -29 25
-34 1 -38 -6 -36 -65 1 -7 -5 -13 -13 -13 -7 0 -11 6 -8 14 3 8 -2 16 -13 19
-14 4 -15 5 -2 6 9 0 19 12 21 25 4 21 0 25 -26 29 -36 5 -47 0 -26 -13 12 -8
12 -10 1 -10 -7 0 -11 -6 -7 -15 5 -13 -4 -19 -24 -17 -3 0 -7 -13 -8 -29 -2
-22 2 -28 15 -27 10 1 41 -2 70 -6 44 -7 53 -12 59 -35 l7 -26 8 30 c6 23 7
18 5 -23 -2 -56 -19 -80 -43 -60 -9 7 -13 7 -13 0 0 -6 6 -12 13 -15 9 -3 9
-8 1 -18 -6 -8 -11 -24 -12 -37 -1 -18 6 -24 29 -29 16 -3 29 -12 29 -19 0
-17 -32 -18 -48 -2 -13 13 -27 5 -17 -11 3 -6 22 -11 41 -11 31 0 34 2 34 30
0 20 -5 30 -15 30 -8 0 -19 9 -25 19 -8 16 -5 25 17 50 16 16 39 31 53 33 20
2 24 8 22 27 -1 13 6 34 16 45 34 39 44 56 35 56 -5 0 -24 -22 -42 -50 -43
-67 -60 -66 -55 3 2 28 8 63 13 77 16 42 20 97 8 109 -6 6 -19 11 -29 11 -11
0 -18 7 -18 20 0 28 14 25 53 -12 19 -18 51 -46 71 -62 21 -16 36 -37 36 -49
0 -21 0 -21 16 1 9 13 12 28 7 36 -8 14 -12 16 -32 16 -5 0 -40 26 -79 59 -81
68 -92 75 -93 64z m21 -183 c0 -5 -2 -10 -4 -10 -3 0 -8 5 -11 10 -3 6 -1 10
4 10 6 0 11 -4 11 -10z m-123 -36 c-3 -3 -12 -4 -19 -1 -8 3 -5 6 6 6 11 1 17
-2 13 -5z m193 -114 c0 -5 -5 -10 -11 -10 -5 0 -7 5 -4 10 3 6 8 10 11 10 2 0
4 -4 4 -10z"/>
<path d="M580 1150 c0 -5 5 -10 10 -10 6 0 10 5 10 10 0 6 -4 10 -10 10 -5 0
-10 -4 -10 -10z"/>
<path d="M1081 1102 c4 -26 11 -61 14 -78 4 -19 3 -34 -4 -38 -6 -4 -11 0 -11
8 0 11 -9 16 -30 16 -16 0 -30 -4 -30 -10 0 -5 12 -10 26 -10 14 0 23 -4 19
-10 -3 -5 -22 -10 -40 -10 -26 0 -33 3 -29 15 5 11 -1 15 -25 15 -37 0 -43
-26 -8 -33 19 -4 18 -4 -6 -6 -31 -1 -33 3 -41 75 -6 55 -24 113 -25 82 -1
-10 -5 -18 -11 -18 -5 0 -10 -5 -10 -11 0 -6 -13 -27 -30 -46 -19 -21 -30 -45
-30 -63 0 -27 3 -29 28 -24 20 3 35 -3 58 -23 18 -15 64 -54 103 -86 71 -58
89 -92 54 -99 -11 -3 -51 26 -108 77 -98 87 -144 119 -189 131 -27 6 -28 5
-23 -18 5 -20 -1 -35 -31 -69 -85 -98 -117 -152 -114 -191 3 -34 6 -38 30 -37
17 1 21 3 10 6 -13 3 -18 14 -18 38 0 32 3 35 42 46 24 6 59 9 80 6 28 -4 35
-2 31 9 -3 9 -14 12 -32 9 -29 -6 -81 3 -81 13 0 4 13 21 28 39 15 18 35 44
45 58 14 20 22 23 32 15 10 -9 12 -4 10 25 -2 23 0 35 7 33 7 -3 10 -34 9 -86
-2 -66 1 -82 12 -82 17 0 32 78 22 110 -4 13 -2 20 7 20 17 -1 62 -41 71 -63
3 -9 11 -17 17 -17 17 0 11 -25 -10 -37 -10 -7 -43 -16 -72 -19 l-53 -6 0
-162 1 -161 -3 143 c-2 90 -7 142 -14 142 -12 0 -6 -281 6 -312 6 -15 2 -18
-21 -18 -16 0 -36 -5 -44 -10 -10 -6 -3 -8 22 -3 20 3 48 3 62 -1 l26 -6 0
-138 c0 -119 -3 -141 -20 -169 -35 -58 -101 -54 -140 9 -39 64 -12 97 30 37
23 -32 60 -37 67 -9 4 13 3 13 -6 0 -10 -13 -15 -11 -35 14 l-24 29 28 23 c37
32 42 30 34 -11 -4 -23 -2 -35 5 -35 7 0 11 24 11 66 l0 66 -29 -31 c-16 -17
-38 -31 -48 -31 -26 0 -53 30 -54 61 -1 21 -2 20 -8 -6 -6 -26 -9 -21 -25 47
-21 92 -36 112 -80 102 -39 -8 -111 -66 -131 -105 -9 -16 -18 -29 -21 -29 -3
0 -5 64 -4 142 2 184 3 171 -20 196 -26 28 -34 27 -60 0 -20 -21 -21 -32 -18
-136 2 -61 1 -112 -2 -112 -9 0 -59 114 -66 148 -8 42 -39 72 -73 72 -42 0
-52 -35 -48 -165 l3 -110 2 116 c2 127 15 164 49 143 20 -12 24 -20 89 -162
26 -56 51 -102 55 -102 4 0 5 64 2 143 -5 124 -4 144 10 156 9 7 23 11 31 8
12 -5 15 -43 18 -199 2 -106 0 -201 -5 -211 -23 -50 -74 -2 -139 131 l-43 87
-3 -107 c-2 -78 -6 -109 -17 -118 -21 -18 -45 4 -46 44 l-2 31 -4 -29 c-6 -38
15 -86 37 -86 10 0 28 11 39 25 16 22 19 36 14 85 -6 70 9 81 33 24 25 -59 63
-110 91 -123 24 -11 29 -10 43 9 l16 22 37 -22 c41 -24 60 -21 100 16 l28 25
35 -30 c37 -33 61 -31 83 7 7 12 13 14 18 6 5 -7 17 -14 28 -16 16 -4 12 -7
-15 -14 -30 -9 -35 -15 -38 -42 -2 -19 3 -38 12 -48 9 -8 16 -21 16 -28 0 -14
55 -36 92 -36 39 0 74 40 85 96 5 27 9 98 8 158 -2 100 -4 111 -23 124 -17 11
-19 18 -12 32 6 10 12 90 14 177 l4 158 91 2 c87 3 92 2 100 -19 11 -29 -14
-61 -41 -52 -12 4 -18 0 -18 -11 0 -32 22 -160 29 -167 8 -9 172 8 181 19 14
16 -14 167 -37 200 -13 17 -23 43 -23 56 0 15 -9 32 -20 40 -11 8 -22 23 -24
33 -19 103 -19 104 6 104 13 0 32 6 42 13 17 12 18 23 11 90 -5 58 -11 80 -24
87 -16 8 -17 5 -10 -38z m-184 -77 c-3 -19 -2 -35 4 -35 5 0 9 -9 9 -20 0 -27
-18 -25 -46 6 -29 31 -29 32 -2 61 30 33 42 29 35 -12z m-137 -79 c0 -3 -4 -8
-10 -11 -5 -3 -10 -1 -10 4 0 6 5 11 10 11 6 0 10 -2 10 -4z m242 -36 c-5 -35
-9 -36 -41 -11 -29 22 -20 41 18 41 25 0 27 -3 23 -30z m38 -20 c0 -5 -4 -10
-10 -10 -5 0 -10 5 -10 10 0 6 5 10 10 10 6 0 10 -4 10 -10z m-91 -111 c-16
-10 -23 -4 -14 10 3 6 11 8 17 5 6 -4 5 -9 -3 -15z m98 -121 c-3 -8 -6 -5 -6
6 -1 11 2 17 5 13 3 -3 4 -12 1 -19z m11 -49 c-3 -8 -7 -3 -11 10 -4 17 -3 21
5 13 5 -5 8 -16 6 -23z m-489 -301 c6 -33 18 -72 26 -85 13 -19 14 -27 4 -39
-20 -24 -38 -16 -59 26 l-21 40 -38 -40 c-78 -82 -148 -25 -90 74 36 61 127
116 156 94 6 -5 16 -36 22 -70z"/>
<path d="M457 283 c-15 -20 -24 -39 -21 -42 8 -8 54 47 54 65 0 21 -4 18 -33
-23z"/>
<path d="M1010 1112 c0 -10 36 -9 46 1 4 4 -5 7 -19 7 -15 0 -27 -4 -27 -8z"/>
<path d="M930 1100 c0 -6 11 -10 25 -10 14 0 25 4 25 8 0 4 -11 9 -25 10 -14
1 -25 -3 -25 -8z"/>
<path d="M430 1090 c0 -5 5 -10 11 -10 5 0 7 5 4 10 -3 6 -8 10 -11 10 -2 0
-4 -4 -4 -10z"/>
<path d="M491 1093 c-1 -6 -14 -14 -31 -18 -49 -11 -36 -55 17 -55 11 0 14 7
11 25 -3 13 -1 26 5 28 5 1 7 10 4 18 -3 7 -6 9 -6 2z"/>
<path d="M1023 1083 c9 -2 25 -2 35 0 9 3 1 5 -18 5 -19 0 -27 -2 -17 -5z"/>
<path d="M943 1073 c9 -2 25 -2 35 0 9 3 1 5 -18 5 -19 0 -27 -2 -17 -5z"/>
<path d="M411 1054 c0 -11 3 -14 6 -6 3 7 2 16 -1 19 -3 4 -6 -2 -5 -13z"/>
<path d="M1020 1060 c-16 -10 -9 -13 25 -11 15 0 12 -3 -10 -14 l-30 -14 36
-1 c33 0 36 2 31 25 -5 26 -26 32 -52 15z"/>
<path d="M948 1053 c-26 -6 -22 -23 5 -24 21 -1 21 -1 -3 -9 -23 -7 -22 -8 11
-9 33 -1 36 1 31 24 -4 25 -10 27 -44 18z"/>
<path d="M755 1011 c-7 -13 2 -31 15 -31 5 0 6 8 3 18 -6 15 -5 16 12 2 16
-13 18 -13 13 0 -6 18 -34 25 -43 11z"/>
<path d="M885 890 c3 -5 8 -10 11 -10 2 0 4 5 4 10 0 6 -5 10 -11 10 -5 0 -7
-4 -4 -10z"/>
<path d="M663 663 c-9 -3 -10 -10 -4 -21 5 -9 8 -46 6 -82 l-3 -65 -85 -3 -86
-3 -4 78 -3 78 -2 -80 c-1 -52 2 -85 10 -93 7 -7 45 -12 99 -12 101 0 99 -2
98 103 0 79 -8 106 -26 100z"/>
<path d="M518 623 c12 -2 30 -2 40 0 9 3 -1 5 -23 4 -22 0 -30 -2 -17 -4z"/>
<path d="M603 623 c9 -2 23 -2 30 0 6 3 -1 5 -18 5 -16 0 -22 -2 -12 -5z"/>
<path d="M505 600 c-4 -6 7 -10 24 -10 17 0 31 5 31 10 0 6 -11 10 -24 10 -14
0 -28 -4 -31 -10z"/>
<path d="M598 598 c-9 -5 -4 -8 15 -8 15 0 27 4 27 8 0 11 -25 11 -42 0z"/>
<path d="M1728 568 c-24 -17 -28 -26 -26 -66 1 -43 2 -44 5 -10 5 43 27 68 46
49 8 -8 11 -44 9 -112 -1 -55 3 -130 8 -166 9 -56 8 -69 -4 -81 -23 -23 -44 0
-51 56 -10 79 -14 89 -44 121 -40 43 -100 44 -142 2 -16 -16 -29 -35 -29 -43
1 -7 7 -1 16 14 29 55 99 66 133 22 41 -52 16 -145 -47 -178 -26 -13 -31 -13
-60 4 -22 14 -33 29 -38 57 -4 21 -9 32 -11 26 -18 -51 -43 41 -43 155 0 109
-10 142 -44 142 -13 0 -27 -7 -30 -16 -9 -24 -7 -28 8 -15 11 9 18 8 30 -4 13
-13 16 -38 16 -119 0 -90 3 -109 25 -152 29 -58 31 -70 8 -78 -11 -5 -24 2
-38 20 l-22 27 -30 -23 c-17 -12 -51 -25 -76 -27 -38 -5 -46 -3 -51 14 -7 21
7 66 27 93 7 9 2 5 -10 -7 -41 -43 -43 -115 -4 -126 28 -7 107 12 122 29 16
20 32 18 47 -6 15 -24 39 -26 63 -4 17 15 20 15 45 -5 15 -12 34 -21 43 -21
31 0 82 41 99 78 l16 37 5 -30 c12 -65 48 -90 90 -63 15 9 22 8 36 -6 27 -26
89 -4 118 42 7 10 17 4 41 -24 33 -38 33 -38 60 -21 29 20 34 51 11 84 -8 12
-21 48 -28 80 -21 92 -62 100 -149 32 -21 -17 -43 -40 -49 -51 -6 -11 8 -1 31
22 48 48 97 72 121 59 10 -5 19 -28 23 -60 4 -29 16 -69 26 -89 17 -33 18 -40
5 -50 -21 -18 -43 -6 -62 34 l-16 36 -37 -40 c-58 -63 -117 -50 -108 24 3 26
1 33 -11 28 -11 -4 -13 -1 -8 13 4 9 2 23 -4 31 -7 9 -8 42 -1 111 9 87 8 101
-8 123 -9 14 -19 30 -21 37 -3 8 -13 5 -31 -9z"/>
<path d="M500 569 c0 -5 17 -9 37 -9 20 0 33 3 29 7 -11 11 -66 12 -66 2z"/>
<path d="M590 568 c0 -4 14 -8 32 -8 17 0 28 3 25 7 -10 9 -57 10 -57 1z"/>
<path d="M500 540 c0 -5 13 -10 29 -10 17 0 33 5 36 10 4 6 -8 10 -29 10 -20
0 -36 -4 -36 -10z"/>
<path d="M590 540 c0 -5 11 -10 25 -10 14 0 25 5 25 10 0 6 -11 10 -25 10 -14
0 -25 -4 -25 -10z"/>
<path d="M500 510 c0 -5 16 -10 35 -10 19 0 35 5 35 10 0 6 -16 10 -35 10 -19
0 -35 -4 -35 -10z"/>
<path d="M585 510 c-4 -6 7 -10 24 -10 17 0 31 5 31 10 0 6 -11 10 -24 10 -14
0 -28 -4 -31 -10z"/>
<path d="M1360 418 c-3 -48 -1 -83 3 -79 4 4 7 43 5 87 l-3 79 -5 -87z"/>
<path d="M898 383 c-9 -2 -19 -11 -22 -20 -6 -14 -4 -14 18 1 38 25 81 21 105
-10 49 -62 4 -184 -68 -184 -34 0 -53 12 -67 44 -7 18 -13 24 -14 14 0 -31 22
-67 50 -78 23 -10 36 -8 73 8 41 18 45 24 55 68 18 83 19 100 5 112 -18 18
-16 32 5 33 14 0 14 2 -3 9 -21 9 -108 11 -137 3z"/>
<path d="M1142 363 c-17 -22 -24 -24 -36 -14 -25 21 -36 8 -15 -17 l19 -24 27
32 c14 18 36 36 47 40 l21 9 -21 0 c-11 1 -30 -11 -42 -26z"/>
<path d="M1223 384 c24 -7 21 -28 -5 -43 -32 -17 -74 -79 -87 -129 -15 -52
-34 -54 -60 -4 -25 45 -27 31 -3 -18 12 -24 25 -36 42 -38 22 -3 27 4 49 63
17 50 33 73 62 97 46 37 50 72 9 75 -14 1 -18 0 -7 -3z"/>
<path d="M651 348 c-14 -23 -14 -23 8 -4 22 20 25 26 13 26 -4 0 -13 -10 -21
-22z"/>
<path d="M696 308 c-18 -25 -21 -58 -7 -58 9 0 34 32 55 68 13 22 -32 13 -48
-10z"/>
<path d="M926 314 c-24 -23 -18 -78 9 -83 16 -3 17 -1 7 12 -8 9 -10 26 -6 41
7 28 19 34 27 14 4 -8 6 -9 6 -2 1 6 -5 17 -13 23 -11 9 -18 8 -30 -5z"/>
<path d="M1576 314 c-24 -23 -18 -79 8 -79 11 0 21 6 24 13 2 8 -2 10 -13 6
-13 -5 -16 -2 -13 17 2 16 9 24 21 23 21 -2 22 9 3 25 -11 9 -18 8 -30 -5z"/>
<path d="M1909 303 c-24 -27 -41 -63 -30 -63 13 0 53 58 49 71 -2 6 -11 3 -19
-8z"/>
<path d="M1319 252 c-28 -23 -11 -37 19 -16 22 15 29 34 13 34 -5 0 -19 -8
-32 -18z"/>
<path d="M866 122 c-2 -4 290 -6 650 -4 590 3 654 2 654 -12 0 -16 -198 -19
-1243 -21 -47 0 -76 -4 -74 -10 4 -10 1293 -8 1330 2 12 3 17 12 15 26 l-3 22
-662 2 c-364 1 -664 -1 -667 -5z"/>
<path d="M210 105 c-10 -12 -10 -18 0 -30 11 -13 42 -15 199 -13 l186 3 0 25
0 25 -186 3 c-157 2 -188 0 -199 -13z m363 -10 c-2 -6 -72 -11 -178 -13 -152
-2 -175 0 -175 13 0 13 23 15 178 13 111 -2 176 -7 175 -13z"/>
</g>
</svg>
